M48
; DRILL file {KiCad 7.0.6} date Thu Feb  1 15:41:42 2024
; FORMAT={-:-/ absolute / inch / decimal}
; #@! TF.CreationDate,2024-02-01T15:41:42-05:00
; #@! TF.GenerationSoftware,Kicad,Pcbnew,7.0.6
; #@! TF.FileFunction,NonPlated,1,2,NPTH
FMAT,2
INCH
; #@! TA.AperFunction,NonPlated,NPTH,ComponentDrill
T1C0.0787
; #@! TA.AperFunction,NonPlated,NPTH,ComponentDrill
T2C0.1181
; #@! TA.AperFunction,NonPlated,NPTH,ComponentDrill
T3C0.1969
; #@! TA.AperFunction,NonPlated,NPTH,ComponentDrill
T4C0.3150
%
G90
G05
T1
X2.0896Y-2.7579
X3.235Y-2.7626
X4.2823Y-3.2094
X4.9717Y-5.298
X5.437Y-3.9823
X5.6579Y-2.7602
X6.3784Y-5.2955
X6.4846Y-3.5449
X6.7035Y-2.3063
X7.6205Y-3.5449
X7.8441Y-2.3016
X8.7705Y-3.5449
X8.9846Y-2.311
T2
X2.2923Y-2.3268
X2.4892Y-2.4134
X3.4378Y-2.3315
X3.6346Y-2.4181
X4.485Y-2.7783
X4.6819Y-2.865
X5.1744Y-4.8669
X5.3713Y-4.9535
X5.6398Y-3.5512
X5.8366Y-3.6378
X5.8606Y-2.3291
X6.0575Y-2.4157
X6.5812Y-4.8644
X6.6874Y-3.1138
X6.778Y-4.951
X6.8843Y-3.2004
X6.9063Y-1.8752
X7.1031Y-1.9618
X7.8232Y-3.1138
X8.0201Y-3.2004
X8.0469Y-1.8705
X8.2437Y-1.9571
X8.9732Y-3.1138
X9.1701Y-3.2004
X9.1874Y-1.8799
X9.3843Y-1.9665
T3
X2.2923Y-2.561
X3.4378Y-2.5657
X4.485Y-3.0126
X5.1744Y-5.1012
X5.6398Y-3.7854
X5.8606Y-2.5634
X6.5812Y-5.0987
X6.6874Y-3.348
X6.9063Y-2.1094
X7.8232Y-3.348
X8.0469Y-2.1047
X8.9732Y-3.348
X9.1874Y-2.1142
T4
X1.8504Y-1.4567
X1.8504Y-5.6299
X5.2559Y-3.0709
X5.9055Y-1.4567
X5.9055Y-5.6299
X9.5669Y-1.4567
X9.5669Y-5.6299
T0
M30
