M48
; DRILL file {KiCad 7.0.6} date Thu Feb  1 15:41:42 2024
; FORMAT={-:-/ absolute / inch / decimal}
; #@! TF.CreationDate,2024-02-01T15:41:42-05:00
; #@! TF.GenerationSoftware,Kicad,Pcbnew,7.0.6
; #@! TF.FileFunction,Plated,1,2,PTH
FMAT,2
INCH
; #@! TA.AperFunction,Plated,PTH,ViaDrill
T1C0.0157
; #@! TA.AperFunction,Plated,PTH,ComponentDrill
T2C0.0236
; #@! TA.AperFunction,Plated,PTH,ComponentDrill
T3C0.0433
; #@! TA.AperFunction,Plated,PTH,ComponentDrill
T4C0.0500
%
G90
G05
T1
X2.2008Y-3.5512
X4.622Y-1.3543
T3
X2.2244Y-1.437
X2.2244Y-1.6929
X2.4016Y-1.437
X2.4016Y-1.6929
X2.6378Y-1.437
X2.6378Y-1.6929
X2.815Y-1.437
X2.815Y-1.6929
X3.0512Y-1.437
X3.0512Y-1.6929
X3.2283Y-1.437
X3.2283Y-1.6929
X3.4646Y-1.437
X3.4646Y-1.6929
X3.6417Y-1.437
X3.6417Y-1.6929
X3.878Y-1.437
X3.878Y-1.6929
X4.0551Y-1.437
X4.0551Y-1.6929
X4.2913Y-1.437
X4.2913Y-1.6929
X4.4685Y-1.437
X4.4685Y-1.6929
T4
X2.2923Y-2.7933
X3.4378Y-2.798
X4.485Y-3.2449
X5.1744Y-5.3335
X5.6398Y-4.0177
X5.8606Y-2.7957
X6.5812Y-5.3309
X6.6874Y-3.5803
X6.9063Y-2.3417
X7.8232Y-3.5803
X8.0469Y-2.337
X8.9732Y-3.5803
X9.1874Y-2.3465
T2
G00X1.963Y-3.1598
M15
G01X1.8961Y-3.1598
M16
G05
G00X1.963Y-3.6638
M15
G01X1.8961Y-3.6638
M16
G05
T0
M30
