%TF.GenerationSoftware,KiCad,Pcbnew,7.0.6*%
%TF.CreationDate,2024-02-01T15:41:42-05:00*%
%TF.ProjectId,Kolbebox_USB_Passthrough,4b6f6c62-6562-46f7-985f-5553425f5061,rev?*%
%TF.SameCoordinates,Original*%
%TF.FileFunction,Legend,Bot*%
%TF.FilePolarity,Positive*%
%FSLAX46Y46*%
G04 Gerber Fmt 4.6, Leading zero omitted, Abs format (unit mm)*
G04 Created by KiCad (PCBNEW 7.0.6) date 2024-02-01 15:41:42*
%MOMM*%
%LPD*%
G01*
G04 APERTURE LIST*
%ADD10C,0.150000*%
%ADD11C,0.120000*%
%ADD12C,2.000000*%
%ADD13C,3.000000*%
%ADD14C,5.000000*%
%ADD15R,2.600000X2.600000*%
%ADD16C,2.032000*%
%ADD17C,8.000000*%
%ADD18O,2.900000X1.200000*%
G04 APERTURE END LIST*
D10*
X141554819Y-37619047D02*
X141078628Y-37285714D01*
X141554819Y-37047619D02*
X140554819Y-37047619D01*
X140554819Y-37047619D02*
X140554819Y-37428571D01*
X140554819Y-37428571D02*
X140602438Y-37523809D01*
X140602438Y-37523809D02*
X140650057Y-37571428D01*
X140650057Y-37571428D02*
X140745295Y-37619047D01*
X140745295Y-37619047D02*
X140888152Y-37619047D01*
X140888152Y-37619047D02*
X140983390Y-37571428D01*
X140983390Y-37571428D02*
X141031009Y-37523809D01*
X141031009Y-37523809D02*
X141078628Y-37428571D01*
X141078628Y-37428571D02*
X141078628Y-37047619D01*
X141554819Y-38047619D02*
X140554819Y-38047619D01*
X140554819Y-38047619D02*
X140554819Y-38428571D01*
X140554819Y-38428571D02*
X140602438Y-38523809D01*
X140602438Y-38523809D02*
X140650057Y-38571428D01*
X140650057Y-38571428D02*
X140745295Y-38619047D01*
X140745295Y-38619047D02*
X140888152Y-38619047D01*
X140888152Y-38619047D02*
X140983390Y-38571428D01*
X140983390Y-38571428D02*
X141031009Y-38523809D01*
X141031009Y-38523809D02*
X141078628Y-38428571D01*
X141078628Y-38428571D02*
X141078628Y-38047619D01*
X140650057Y-39000000D02*
X140602438Y-39047619D01*
X140602438Y-39047619D02*
X140554819Y-39142857D01*
X140554819Y-39142857D02*
X140554819Y-39380952D01*
X140554819Y-39380952D02*
X140602438Y-39476190D01*
X140602438Y-39476190D02*
X140650057Y-39523809D01*
X140650057Y-39523809D02*
X140745295Y-39571428D01*
X140745295Y-39571428D02*
X140840533Y-39571428D01*
X140840533Y-39571428D02*
X140983390Y-39523809D01*
X140983390Y-39523809D02*
X141554819Y-38952381D01*
X141554819Y-38952381D02*
X141554819Y-39571428D01*
X140554819Y-40190476D02*
X140554819Y-40285714D01*
X140554819Y-40285714D02*
X140602438Y-40380952D01*
X140602438Y-40380952D02*
X140650057Y-40428571D01*
X140650057Y-40428571D02*
X140745295Y-40476190D01*
X140745295Y-40476190D02*
X140935771Y-40523809D01*
X140935771Y-40523809D02*
X141173866Y-40523809D01*
X141173866Y-40523809D02*
X141364342Y-40476190D01*
X141364342Y-40476190D02*
X141459580Y-40428571D01*
X141459580Y-40428571D02*
X141507200Y-40380952D01*
X141507200Y-40380952D02*
X141554819Y-40285714D01*
X141554819Y-40285714D02*
X141554819Y-40190476D01*
X141554819Y-40190476D02*
X141507200Y-40095238D01*
X141507200Y-40095238D02*
X141459580Y-40047619D01*
X141459580Y-40047619D02*
X141364342Y-40000000D01*
X141364342Y-40000000D02*
X141173866Y-39952381D01*
X141173866Y-39952381D02*
X140935771Y-39952381D01*
X140935771Y-39952381D02*
X140745295Y-40000000D01*
X140745295Y-40000000D02*
X140650057Y-40047619D01*
X140650057Y-40047619D02*
X140602438Y-40095238D01*
X140602438Y-40095238D02*
X140554819Y-40190476D01*
X140888152Y-41380952D02*
X141554819Y-41380952D01*
X140507200Y-41142857D02*
X141221485Y-40904762D01*
X141221485Y-40904762D02*
X141221485Y-41523809D01*
X140554819Y-42095238D02*
X140554819Y-42190476D01*
X140554819Y-42190476D02*
X140602438Y-42285714D01*
X140602438Y-42285714D02*
X140650057Y-42333333D01*
X140650057Y-42333333D02*
X140745295Y-42380952D01*
X140745295Y-42380952D02*
X140935771Y-42428571D01*
X140935771Y-42428571D02*
X141173866Y-42428571D01*
X141173866Y-42428571D02*
X141364342Y-42380952D01*
X141364342Y-42380952D02*
X141459580Y-42333333D01*
X141459580Y-42333333D02*
X141507200Y-42285714D01*
X141507200Y-42285714D02*
X141554819Y-42190476D01*
X141554819Y-42190476D02*
X141554819Y-42095238D01*
X141554819Y-42095238D02*
X141507200Y-42000000D01*
X141507200Y-42000000D02*
X141459580Y-41952381D01*
X141459580Y-41952381D02*
X141364342Y-41904762D01*
X141364342Y-41904762D02*
X141173866Y-41857143D01*
X141173866Y-41857143D02*
X140935771Y-41857143D01*
X140935771Y-41857143D02*
X140745295Y-41904762D01*
X140745295Y-41904762D02*
X140650057Y-41952381D01*
X140650057Y-41952381D02*
X140602438Y-42000000D01*
X140602438Y-42000000D02*
X140554819Y-42095238D01*
X141173866Y-42857143D02*
X141173866Y-43619048D01*
X140554819Y-44000000D02*
X140554819Y-44666666D01*
X140554819Y-44666666D02*
X141554819Y-44000000D01*
X141554819Y-44000000D02*
X141554819Y-44666666D01*
X141507200Y-45428571D02*
X141554819Y-45333333D01*
X141554819Y-45333333D02*
X141554819Y-45142857D01*
X141554819Y-45142857D02*
X141507200Y-45047619D01*
X141507200Y-45047619D02*
X141411961Y-45000000D01*
X141411961Y-45000000D02*
X141031009Y-45000000D01*
X141031009Y-45000000D02*
X140935771Y-45047619D01*
X140935771Y-45047619D02*
X140888152Y-45142857D01*
X140888152Y-45142857D02*
X140888152Y-45333333D01*
X140888152Y-45333333D02*
X140935771Y-45428571D01*
X140935771Y-45428571D02*
X141031009Y-45476190D01*
X141031009Y-45476190D02*
X141126247Y-45476190D01*
X141126247Y-45476190D02*
X141221485Y-45000000D01*
X141554819Y-45904762D02*
X140888152Y-45904762D01*
X141078628Y-45904762D02*
X140983390Y-45952381D01*
X140983390Y-45952381D02*
X140935771Y-46000000D01*
X140935771Y-46000000D02*
X140888152Y-46095238D01*
X140888152Y-46095238D02*
X140888152Y-46190476D01*
X141554819Y-46666667D02*
X141507200Y-46571429D01*
X141507200Y-46571429D02*
X141459580Y-46523810D01*
X141459580Y-46523810D02*
X141364342Y-46476191D01*
X141364342Y-46476191D02*
X141078628Y-46476191D01*
X141078628Y-46476191D02*
X140983390Y-46523810D01*
X140983390Y-46523810D02*
X140935771Y-46571429D01*
X140935771Y-46571429D02*
X140888152Y-46666667D01*
X140888152Y-46666667D02*
X140888152Y-46809524D01*
X140888152Y-46809524D02*
X140935771Y-46904762D01*
X140935771Y-46904762D02*
X140983390Y-46952381D01*
X140983390Y-46952381D02*
X141078628Y-47000000D01*
X141078628Y-47000000D02*
X141364342Y-47000000D01*
X141364342Y-47000000D02*
X141459580Y-46952381D01*
X141459580Y-46952381D02*
X141507200Y-46904762D01*
X141507200Y-46904762D02*
X141554819Y-46809524D01*
X141554819Y-46809524D02*
X141554819Y-46666667D01*
D11*
X206775238Y-147473855D02*
X206775238Y-148045283D01*
X206775238Y-148045283D02*
X206813333Y-148159569D01*
X206813333Y-148159569D02*
X206889524Y-148235760D01*
X206889524Y-148235760D02*
X207003809Y-148273855D01*
X207003809Y-148273855D02*
X207080000Y-148273855D01*
X206013333Y-148273855D02*
X206394285Y-148273855D01*
X206394285Y-148273855D02*
X206394285Y-147473855D01*
X205289523Y-148197664D02*
X205327619Y-148235760D01*
X205327619Y-148235760D02*
X205441904Y-148273855D01*
X205441904Y-148273855D02*
X205518095Y-148273855D01*
X205518095Y-148273855D02*
X205632381Y-148235760D01*
X205632381Y-148235760D02*
X205708571Y-148159569D01*
X205708571Y-148159569D02*
X205746666Y-148083379D01*
X205746666Y-148083379D02*
X205784762Y-147930998D01*
X205784762Y-147930998D02*
X205784762Y-147816712D01*
X205784762Y-147816712D02*
X205746666Y-147664331D01*
X205746666Y-147664331D02*
X205708571Y-147588140D01*
X205708571Y-147588140D02*
X205632381Y-147511950D01*
X205632381Y-147511950D02*
X205518095Y-147473855D01*
X205518095Y-147473855D02*
X205441904Y-147473855D01*
X205441904Y-147473855D02*
X205327619Y-147511950D01*
X205327619Y-147511950D02*
X205289523Y-147550045D01*
X204718095Y-147473855D02*
X204718095Y-148045283D01*
X204718095Y-148045283D02*
X204756190Y-148159569D01*
X204756190Y-148159569D02*
X204832381Y-148235760D01*
X204832381Y-148235760D02*
X204946666Y-148273855D01*
X204946666Y-148273855D02*
X205022857Y-148273855D01*
X203956190Y-148273855D02*
X204337142Y-148273855D01*
X204337142Y-148273855D02*
X204337142Y-147473855D01*
X203232380Y-148197664D02*
X203270476Y-148235760D01*
X203270476Y-148235760D02*
X203384761Y-148273855D01*
X203384761Y-148273855D02*
X203460952Y-148273855D01*
X203460952Y-148273855D02*
X203575238Y-148235760D01*
X203575238Y-148235760D02*
X203651428Y-148159569D01*
X203651428Y-148159569D02*
X203689523Y-148083379D01*
X203689523Y-148083379D02*
X203727619Y-147930998D01*
X203727619Y-147930998D02*
X203727619Y-147816712D01*
X203727619Y-147816712D02*
X203689523Y-147664331D01*
X203689523Y-147664331D02*
X203651428Y-147588140D01*
X203651428Y-147588140D02*
X203575238Y-147511950D01*
X203575238Y-147511950D02*
X203460952Y-147473855D01*
X203460952Y-147473855D02*
X203384761Y-147473855D01*
X203384761Y-147473855D02*
X203270476Y-147511950D01*
X203270476Y-147511950D02*
X203232380Y-147550045D01*
X202660952Y-147473855D02*
X202660952Y-148045283D01*
X202660952Y-148045283D02*
X202699047Y-148159569D01*
X202699047Y-148159569D02*
X202775238Y-148235760D01*
X202775238Y-148235760D02*
X202889523Y-148273855D01*
X202889523Y-148273855D02*
X202965714Y-148273855D01*
X201899047Y-148273855D02*
X202279999Y-148273855D01*
X202279999Y-148273855D02*
X202279999Y-147473855D01*
X201175237Y-148197664D02*
X201213333Y-148235760D01*
X201213333Y-148235760D02*
X201327618Y-148273855D01*
X201327618Y-148273855D02*
X201403809Y-148273855D01*
X201403809Y-148273855D02*
X201518095Y-148235760D01*
X201518095Y-148235760D02*
X201594285Y-148159569D01*
X201594285Y-148159569D02*
X201632380Y-148083379D01*
X201632380Y-148083379D02*
X201670476Y-147930998D01*
X201670476Y-147930998D02*
X201670476Y-147816712D01*
X201670476Y-147816712D02*
X201632380Y-147664331D01*
X201632380Y-147664331D02*
X201594285Y-147588140D01*
X201594285Y-147588140D02*
X201518095Y-147511950D01*
X201518095Y-147511950D02*
X201403809Y-147473855D01*
X201403809Y-147473855D02*
X201327618Y-147473855D01*
X201327618Y-147473855D02*
X201213333Y-147511950D01*
X201213333Y-147511950D02*
X201175237Y-147550045D01*
X200603809Y-147473855D02*
X200603809Y-148045283D01*
X200603809Y-148045283D02*
X200641904Y-148159569D01*
X200641904Y-148159569D02*
X200718095Y-148235760D01*
X200718095Y-148235760D02*
X200832380Y-148273855D01*
X200832380Y-148273855D02*
X200908571Y-148273855D01*
X199841904Y-148273855D02*
X200222856Y-148273855D01*
X200222856Y-148273855D02*
X200222856Y-147473855D01*
X199118094Y-148197664D02*
X199156190Y-148235760D01*
X199156190Y-148235760D02*
X199270475Y-148273855D01*
X199270475Y-148273855D02*
X199346666Y-148273855D01*
X199346666Y-148273855D02*
X199460952Y-148235760D01*
X199460952Y-148235760D02*
X199537142Y-148159569D01*
X199537142Y-148159569D02*
X199575237Y-148083379D01*
X199575237Y-148083379D02*
X199613333Y-147930998D01*
X199613333Y-147930998D02*
X199613333Y-147816712D01*
X199613333Y-147816712D02*
X199575237Y-147664331D01*
X199575237Y-147664331D02*
X199537142Y-147588140D01*
X199537142Y-147588140D02*
X199460952Y-147511950D01*
X199460952Y-147511950D02*
X199346666Y-147473855D01*
X199346666Y-147473855D02*
X199270475Y-147473855D01*
X199270475Y-147473855D02*
X199156190Y-147511950D01*
X199156190Y-147511950D02*
X199118094Y-147550045D01*
D10*
X96503094Y-58004819D02*
X96503094Y-57004819D01*
X96503094Y-57004819D02*
X96264999Y-57004819D01*
X96264999Y-57004819D02*
X96122142Y-57052438D01*
X96122142Y-57052438D02*
X96026904Y-57147676D01*
X96026904Y-57147676D02*
X95979285Y-57242914D01*
X95979285Y-57242914D02*
X95931666Y-57433390D01*
X95931666Y-57433390D02*
X95931666Y-57576247D01*
X95931666Y-57576247D02*
X95979285Y-57766723D01*
X95979285Y-57766723D02*
X96026904Y-57861961D01*
X96026904Y-57861961D02*
X96122142Y-57957200D01*
X96122142Y-57957200D02*
X96264999Y-58004819D01*
X96264999Y-58004819D02*
X96503094Y-58004819D01*
X95360237Y-58004819D02*
X95455475Y-57957200D01*
X95455475Y-57957200D02*
X95503094Y-57909580D01*
X95503094Y-57909580D02*
X95550713Y-57814342D01*
X95550713Y-57814342D02*
X95550713Y-57528628D01*
X95550713Y-57528628D02*
X95503094Y-57433390D01*
X95503094Y-57433390D02*
X95455475Y-57385771D01*
X95455475Y-57385771D02*
X95360237Y-57338152D01*
X95360237Y-57338152D02*
X95217380Y-57338152D01*
X95217380Y-57338152D02*
X95122142Y-57385771D01*
X95122142Y-57385771D02*
X95074523Y-57433390D01*
X95074523Y-57433390D02*
X95026904Y-57528628D01*
X95026904Y-57528628D02*
X95026904Y-57814342D01*
X95026904Y-57814342D02*
X95074523Y-57909580D01*
X95074523Y-57909580D02*
X95122142Y-57957200D01*
X95122142Y-57957200D02*
X95217380Y-58004819D01*
X95217380Y-58004819D02*
X95360237Y-58004819D01*
X94693570Y-57338152D02*
X94503094Y-58004819D01*
X94503094Y-58004819D02*
X94312618Y-57528628D01*
X94312618Y-57528628D02*
X94122142Y-58004819D01*
X94122142Y-58004819D02*
X93931666Y-57338152D01*
X93550713Y-57338152D02*
X93550713Y-58004819D01*
X93550713Y-57433390D02*
X93503094Y-57385771D01*
X93503094Y-57385771D02*
X93407856Y-57338152D01*
X93407856Y-57338152D02*
X93264999Y-57338152D01*
X93264999Y-57338152D02*
X93169761Y-57385771D01*
X93169761Y-57385771D02*
X93122142Y-57481009D01*
X93122142Y-57481009D02*
X93122142Y-58004819D01*
X91931666Y-56957200D02*
X92788808Y-58242914D01*
X91598332Y-58004819D02*
X91598332Y-57004819D01*
X91598332Y-57004819D02*
X91217380Y-57004819D01*
X91217380Y-57004819D02*
X91122142Y-57052438D01*
X91122142Y-57052438D02*
X91074523Y-57100057D01*
X91074523Y-57100057D02*
X91026904Y-57195295D01*
X91026904Y-57195295D02*
X91026904Y-57338152D01*
X91026904Y-57338152D02*
X91074523Y-57433390D01*
X91074523Y-57433390D02*
X91122142Y-57481009D01*
X91122142Y-57481009D02*
X91217380Y-57528628D01*
X91217380Y-57528628D02*
X91598332Y-57528628D01*
X90598332Y-58004819D02*
X90598332Y-57338152D01*
X90598332Y-57004819D02*
X90645951Y-57052438D01*
X90645951Y-57052438D02*
X90598332Y-57100057D01*
X90598332Y-57100057D02*
X90550713Y-57052438D01*
X90550713Y-57052438D02*
X90598332Y-57004819D01*
X90598332Y-57004819D02*
X90598332Y-57100057D01*
X90122142Y-57338152D02*
X90122142Y-58004819D01*
X90122142Y-57433390D02*
X90074523Y-57385771D01*
X90074523Y-57385771D02*
X89979285Y-57338152D01*
X89979285Y-57338152D02*
X89836428Y-57338152D01*
X89836428Y-57338152D02*
X89741190Y-57385771D01*
X89741190Y-57385771D02*
X89693571Y-57481009D01*
X89693571Y-57481009D02*
X89693571Y-58004819D01*
X87931666Y-58004819D02*
X88503094Y-58004819D01*
X88217380Y-58004819D02*
X88217380Y-57004819D01*
X88217380Y-57004819D02*
X88312618Y-57147676D01*
X88312618Y-57147676D02*
X88407856Y-57242914D01*
X88407856Y-57242914D02*
X88503094Y-57290533D01*
X86979285Y-58004819D02*
X87550713Y-58004819D01*
X87264999Y-58004819D02*
X87264999Y-57004819D01*
X87264999Y-57004819D02*
X87360237Y-57147676D01*
X87360237Y-57147676D02*
X87455475Y-57242914D01*
X87455475Y-57242914D02*
X87550713Y-57290533D01*
X122531666Y-69354819D02*
X122864999Y-68878628D01*
X123103094Y-69354819D02*
X123103094Y-68354819D01*
X123103094Y-68354819D02*
X122722142Y-68354819D01*
X122722142Y-68354819D02*
X122626904Y-68402438D01*
X122626904Y-68402438D02*
X122579285Y-68450057D01*
X122579285Y-68450057D02*
X122531666Y-68545295D01*
X122531666Y-68545295D02*
X122531666Y-68688152D01*
X122531666Y-68688152D02*
X122579285Y-68783390D01*
X122579285Y-68783390D02*
X122626904Y-68831009D01*
X122626904Y-68831009D02*
X122722142Y-68878628D01*
X122722142Y-68878628D02*
X123103094Y-68878628D01*
X122103094Y-69354819D02*
X122103094Y-68688152D01*
X122103094Y-68354819D02*
X122150713Y-68402438D01*
X122150713Y-68402438D02*
X122103094Y-68450057D01*
X122103094Y-68450057D02*
X122055475Y-68402438D01*
X122055475Y-68402438D02*
X122103094Y-68354819D01*
X122103094Y-68354819D02*
X122103094Y-68450057D01*
X121198333Y-68688152D02*
X121198333Y-69497676D01*
X121198333Y-69497676D02*
X121245952Y-69592914D01*
X121245952Y-69592914D02*
X121293571Y-69640533D01*
X121293571Y-69640533D02*
X121388809Y-69688152D01*
X121388809Y-69688152D02*
X121531666Y-69688152D01*
X121531666Y-69688152D02*
X121626904Y-69640533D01*
X121198333Y-69307200D02*
X121293571Y-69354819D01*
X121293571Y-69354819D02*
X121484047Y-69354819D01*
X121484047Y-69354819D02*
X121579285Y-69307200D01*
X121579285Y-69307200D02*
X121626904Y-69259580D01*
X121626904Y-69259580D02*
X121674523Y-69164342D01*
X121674523Y-69164342D02*
X121674523Y-68878628D01*
X121674523Y-68878628D02*
X121626904Y-68783390D01*
X121626904Y-68783390D02*
X121579285Y-68735771D01*
X121579285Y-68735771D02*
X121484047Y-68688152D01*
X121484047Y-68688152D02*
X121293571Y-68688152D01*
X121293571Y-68688152D02*
X121198333Y-68735771D01*
X120722142Y-69354819D02*
X120722142Y-68354819D01*
X120293571Y-69354819D02*
X120293571Y-68831009D01*
X120293571Y-68831009D02*
X120341190Y-68735771D01*
X120341190Y-68735771D02*
X120436428Y-68688152D01*
X120436428Y-68688152D02*
X120579285Y-68688152D01*
X120579285Y-68688152D02*
X120674523Y-68735771D01*
X120674523Y-68735771D02*
X120722142Y-68783390D01*
X119960237Y-68688152D02*
X119579285Y-68688152D01*
X119817380Y-68354819D02*
X119817380Y-69211961D01*
X119817380Y-69211961D02*
X119769761Y-69307200D01*
X119769761Y-69307200D02*
X119674523Y-69354819D01*
X119674523Y-69354819D02*
X119579285Y-69354819D01*
X118531666Y-68307200D02*
X119388808Y-69592914D01*
X118198332Y-69354819D02*
X118198332Y-68354819D01*
X118198332Y-68354819D02*
X117817380Y-68354819D01*
X117817380Y-68354819D02*
X117722142Y-68402438D01*
X117722142Y-68402438D02*
X117674523Y-68450057D01*
X117674523Y-68450057D02*
X117626904Y-68545295D01*
X117626904Y-68545295D02*
X117626904Y-68688152D01*
X117626904Y-68688152D02*
X117674523Y-68783390D01*
X117674523Y-68783390D02*
X117722142Y-68831009D01*
X117722142Y-68831009D02*
X117817380Y-68878628D01*
X117817380Y-68878628D02*
X118198332Y-68878628D01*
X117198332Y-69354819D02*
X117198332Y-68688152D01*
X117198332Y-68354819D02*
X117245951Y-68402438D01*
X117245951Y-68402438D02*
X117198332Y-68450057D01*
X117198332Y-68450057D02*
X117150713Y-68402438D01*
X117150713Y-68402438D02*
X117198332Y-68354819D01*
X117198332Y-68354819D02*
X117198332Y-68450057D01*
X116722142Y-68688152D02*
X116722142Y-69354819D01*
X116722142Y-68783390D02*
X116674523Y-68735771D01*
X116674523Y-68735771D02*
X116579285Y-68688152D01*
X116579285Y-68688152D02*
X116436428Y-68688152D01*
X116436428Y-68688152D02*
X116341190Y-68735771D01*
X116341190Y-68735771D02*
X116293571Y-68831009D01*
X116293571Y-68831009D02*
X116293571Y-69354819D01*
X114531666Y-69354819D02*
X115103094Y-69354819D01*
X114817380Y-69354819D02*
X114817380Y-68354819D01*
X114817380Y-68354819D02*
X114912618Y-68497676D01*
X114912618Y-68497676D02*
X115007856Y-68592914D01*
X115007856Y-68592914D02*
X115103094Y-68640533D01*
X113912618Y-68354819D02*
X113817380Y-68354819D01*
X113817380Y-68354819D02*
X113722142Y-68402438D01*
X113722142Y-68402438D02*
X113674523Y-68450057D01*
X113674523Y-68450057D02*
X113626904Y-68545295D01*
X113626904Y-68545295D02*
X113579285Y-68735771D01*
X113579285Y-68735771D02*
X113579285Y-68973866D01*
X113579285Y-68973866D02*
X113626904Y-69164342D01*
X113626904Y-69164342D02*
X113674523Y-69259580D01*
X113674523Y-69259580D02*
X113722142Y-69307200D01*
X113722142Y-69307200D02*
X113817380Y-69354819D01*
X113817380Y-69354819D02*
X113912618Y-69354819D01*
X113912618Y-69354819D02*
X114007856Y-69307200D01*
X114007856Y-69307200D02*
X114055475Y-69259580D01*
X114055475Y-69259580D02*
X114103094Y-69164342D01*
X114103094Y-69164342D02*
X114150713Y-68973866D01*
X114150713Y-68973866D02*
X114150713Y-68735771D01*
X114150713Y-68735771D02*
X114103094Y-68545295D01*
X114103094Y-68545295D02*
X114055475Y-68450057D01*
X114055475Y-68450057D02*
X114007856Y-68402438D01*
X114007856Y-68402438D02*
X113912618Y-68354819D01*
X139184523Y-121404819D02*
X139184523Y-122214342D01*
X139184523Y-122214342D02*
X139136904Y-122309580D01*
X139136904Y-122309580D02*
X139089285Y-122357200D01*
X139089285Y-122357200D02*
X138994047Y-122404819D01*
X138994047Y-122404819D02*
X138803571Y-122404819D01*
X138803571Y-122404819D02*
X138708333Y-122357200D01*
X138708333Y-122357200D02*
X138660714Y-122309580D01*
X138660714Y-122309580D02*
X138613095Y-122214342D01*
X138613095Y-122214342D02*
X138613095Y-121404819D01*
X138136904Y-121738152D02*
X138136904Y-122738152D01*
X138136904Y-121785771D02*
X138041666Y-121738152D01*
X138041666Y-121738152D02*
X137851190Y-121738152D01*
X137851190Y-121738152D02*
X137755952Y-121785771D01*
X137755952Y-121785771D02*
X137708333Y-121833390D01*
X137708333Y-121833390D02*
X137660714Y-121928628D01*
X137660714Y-121928628D02*
X137660714Y-122214342D01*
X137660714Y-122214342D02*
X137708333Y-122309580D01*
X137708333Y-122309580D02*
X137755952Y-122357200D01*
X137755952Y-122357200D02*
X137851190Y-122404819D01*
X137851190Y-122404819D02*
X138041666Y-122404819D01*
X138041666Y-122404819D02*
X138136904Y-122357200D01*
X136517857Y-121357200D02*
X137374999Y-122642914D01*
X136184523Y-122404819D02*
X136184523Y-121404819D01*
X136184523Y-121404819D02*
X135803571Y-121404819D01*
X135803571Y-121404819D02*
X135708333Y-121452438D01*
X135708333Y-121452438D02*
X135660714Y-121500057D01*
X135660714Y-121500057D02*
X135613095Y-121595295D01*
X135613095Y-121595295D02*
X135613095Y-121738152D01*
X135613095Y-121738152D02*
X135660714Y-121833390D01*
X135660714Y-121833390D02*
X135708333Y-121881009D01*
X135708333Y-121881009D02*
X135803571Y-121928628D01*
X135803571Y-121928628D02*
X136184523Y-121928628D01*
X135184523Y-122404819D02*
X135184523Y-121738152D01*
X135184523Y-121404819D02*
X135232142Y-121452438D01*
X135232142Y-121452438D02*
X135184523Y-121500057D01*
X135184523Y-121500057D02*
X135136904Y-121452438D01*
X135136904Y-121452438D02*
X135184523Y-121404819D01*
X135184523Y-121404819D02*
X135184523Y-121500057D01*
X134708333Y-121738152D02*
X134708333Y-122404819D01*
X134708333Y-121833390D02*
X134660714Y-121785771D01*
X134660714Y-121785771D02*
X134565476Y-121738152D01*
X134565476Y-121738152D02*
X134422619Y-121738152D01*
X134422619Y-121738152D02*
X134327381Y-121785771D01*
X134327381Y-121785771D02*
X134279762Y-121881009D01*
X134279762Y-121881009D02*
X134279762Y-122404819D01*
X132994047Y-122404819D02*
X132803571Y-122404819D01*
X132803571Y-122404819D02*
X132708333Y-122357200D01*
X132708333Y-122357200D02*
X132660714Y-122309580D01*
X132660714Y-122309580D02*
X132565476Y-122166723D01*
X132565476Y-122166723D02*
X132517857Y-121976247D01*
X132517857Y-121976247D02*
X132517857Y-121595295D01*
X132517857Y-121595295D02*
X132565476Y-121500057D01*
X132565476Y-121500057D02*
X132613095Y-121452438D01*
X132613095Y-121452438D02*
X132708333Y-121404819D01*
X132708333Y-121404819D02*
X132898809Y-121404819D01*
X132898809Y-121404819D02*
X132994047Y-121452438D01*
X132994047Y-121452438D02*
X133041666Y-121500057D01*
X133041666Y-121500057D02*
X133089285Y-121595295D01*
X133089285Y-121595295D02*
X133089285Y-121833390D01*
X133089285Y-121833390D02*
X133041666Y-121928628D01*
X133041666Y-121928628D02*
X132994047Y-121976247D01*
X132994047Y-121976247D02*
X132898809Y-122023866D01*
X132898809Y-122023866D02*
X132708333Y-122023866D01*
X132708333Y-122023866D02*
X132613095Y-121976247D01*
X132613095Y-121976247D02*
X132565476Y-121928628D01*
X132565476Y-121928628D02*
X132517857Y-121833390D01*
X158257380Y-57897200D02*
X158114523Y-57944819D01*
X158114523Y-57944819D02*
X157876428Y-57944819D01*
X157876428Y-57944819D02*
X157781190Y-57897200D01*
X157781190Y-57897200D02*
X157733571Y-57849580D01*
X157733571Y-57849580D02*
X157685952Y-57754342D01*
X157685952Y-57754342D02*
X157685952Y-57659104D01*
X157685952Y-57659104D02*
X157733571Y-57563866D01*
X157733571Y-57563866D02*
X157781190Y-57516247D01*
X157781190Y-57516247D02*
X157876428Y-57468628D01*
X157876428Y-57468628D02*
X158066904Y-57421009D01*
X158066904Y-57421009D02*
X158162142Y-57373390D01*
X158162142Y-57373390D02*
X158209761Y-57325771D01*
X158209761Y-57325771D02*
X158257380Y-57230533D01*
X158257380Y-57230533D02*
X158257380Y-57135295D01*
X158257380Y-57135295D02*
X158209761Y-57040057D01*
X158209761Y-57040057D02*
X158162142Y-56992438D01*
X158162142Y-56992438D02*
X158066904Y-56944819D01*
X158066904Y-56944819D02*
X157828809Y-56944819D01*
X157828809Y-56944819D02*
X157685952Y-56992438D01*
X156828809Y-57278152D02*
X156828809Y-58278152D01*
X156828809Y-57897200D02*
X156924047Y-57944819D01*
X156924047Y-57944819D02*
X157114523Y-57944819D01*
X157114523Y-57944819D02*
X157209761Y-57897200D01*
X157209761Y-57897200D02*
X157257380Y-57849580D01*
X157257380Y-57849580D02*
X157304999Y-57754342D01*
X157304999Y-57754342D02*
X157304999Y-57468628D01*
X157304999Y-57468628D02*
X157257380Y-57373390D01*
X157257380Y-57373390D02*
X157209761Y-57325771D01*
X157209761Y-57325771D02*
X157114523Y-57278152D01*
X157114523Y-57278152D02*
X156924047Y-57278152D01*
X156924047Y-57278152D02*
X156828809Y-57325771D01*
X155924047Y-57278152D02*
X155924047Y-57944819D01*
X156352618Y-57278152D02*
X156352618Y-57801961D01*
X156352618Y-57801961D02*
X156304999Y-57897200D01*
X156304999Y-57897200D02*
X156209761Y-57944819D01*
X156209761Y-57944819D02*
X156066904Y-57944819D01*
X156066904Y-57944819D02*
X155971666Y-57897200D01*
X155971666Y-57897200D02*
X155924047Y-57849580D01*
X155019285Y-57944819D02*
X155019285Y-57421009D01*
X155019285Y-57421009D02*
X155066904Y-57325771D01*
X155066904Y-57325771D02*
X155162142Y-57278152D01*
X155162142Y-57278152D02*
X155352618Y-57278152D01*
X155352618Y-57278152D02*
X155447856Y-57325771D01*
X155019285Y-57897200D02*
X155114523Y-57944819D01*
X155114523Y-57944819D02*
X155352618Y-57944819D01*
X155352618Y-57944819D02*
X155447856Y-57897200D01*
X155447856Y-57897200D02*
X155495475Y-57801961D01*
X155495475Y-57801961D02*
X155495475Y-57706723D01*
X155495475Y-57706723D02*
X155447856Y-57611485D01*
X155447856Y-57611485D02*
X155352618Y-57563866D01*
X155352618Y-57563866D02*
X155114523Y-57563866D01*
X155114523Y-57563866D02*
X155019285Y-57516247D01*
X154543094Y-57944819D02*
X154543094Y-57278152D01*
X154543094Y-57468628D02*
X154495475Y-57373390D01*
X154495475Y-57373390D02*
X154447856Y-57325771D01*
X154447856Y-57325771D02*
X154352618Y-57278152D01*
X154352618Y-57278152D02*
X154257380Y-57278152D01*
X153543094Y-57897200D02*
X153638332Y-57944819D01*
X153638332Y-57944819D02*
X153828808Y-57944819D01*
X153828808Y-57944819D02*
X153924046Y-57897200D01*
X153924046Y-57897200D02*
X153971665Y-57801961D01*
X153971665Y-57801961D02*
X153971665Y-57421009D01*
X153971665Y-57421009D02*
X153924046Y-57325771D01*
X153924046Y-57325771D02*
X153828808Y-57278152D01*
X153828808Y-57278152D02*
X153638332Y-57278152D01*
X153638332Y-57278152D02*
X153543094Y-57325771D01*
X153543094Y-57325771D02*
X153495475Y-57421009D01*
X153495475Y-57421009D02*
X153495475Y-57516247D01*
X153495475Y-57516247D02*
X153971665Y-57611485D01*
X152352618Y-56897200D02*
X153209760Y-58182914D01*
X152019284Y-57944819D02*
X152019284Y-56944819D01*
X152019284Y-56944819D02*
X151638332Y-56944819D01*
X151638332Y-56944819D02*
X151543094Y-56992438D01*
X151543094Y-56992438D02*
X151495475Y-57040057D01*
X151495475Y-57040057D02*
X151447856Y-57135295D01*
X151447856Y-57135295D02*
X151447856Y-57278152D01*
X151447856Y-57278152D02*
X151495475Y-57373390D01*
X151495475Y-57373390D02*
X151543094Y-57421009D01*
X151543094Y-57421009D02*
X151638332Y-57468628D01*
X151638332Y-57468628D02*
X152019284Y-57468628D01*
X151019284Y-57944819D02*
X151019284Y-57278152D01*
X151019284Y-56944819D02*
X151066903Y-56992438D01*
X151066903Y-56992438D02*
X151019284Y-57040057D01*
X151019284Y-57040057D02*
X150971665Y-56992438D01*
X150971665Y-56992438D02*
X151019284Y-56944819D01*
X151019284Y-56944819D02*
X151019284Y-57040057D01*
X150543094Y-57278152D02*
X150543094Y-57944819D01*
X150543094Y-57373390D02*
X150495475Y-57325771D01*
X150495475Y-57325771D02*
X150400237Y-57278152D01*
X150400237Y-57278152D02*
X150257380Y-57278152D01*
X150257380Y-57278152D02*
X150162142Y-57325771D01*
X150162142Y-57325771D02*
X150114523Y-57421009D01*
X150114523Y-57421009D02*
X150114523Y-57944819D01*
X148971665Y-56944819D02*
X148304999Y-56944819D01*
X148304999Y-56944819D02*
X148733570Y-57944819D01*
X185317380Y-45414819D02*
X184745952Y-45414819D01*
X185031666Y-46414819D02*
X185031666Y-45414819D01*
X184412618Y-46414819D02*
X184412618Y-45748152D01*
X184412618Y-45938628D02*
X184364999Y-45843390D01*
X184364999Y-45843390D02*
X184317380Y-45795771D01*
X184317380Y-45795771D02*
X184222142Y-45748152D01*
X184222142Y-45748152D02*
X184126904Y-45748152D01*
X183793570Y-46414819D02*
X183793570Y-45748152D01*
X183793570Y-45414819D02*
X183841189Y-45462438D01*
X183841189Y-45462438D02*
X183793570Y-45510057D01*
X183793570Y-45510057D02*
X183745951Y-45462438D01*
X183745951Y-45462438D02*
X183793570Y-45414819D01*
X183793570Y-45414819D02*
X183793570Y-45510057D01*
X182888809Y-46414819D02*
X182888809Y-45891009D01*
X182888809Y-45891009D02*
X182936428Y-45795771D01*
X182936428Y-45795771D02*
X183031666Y-45748152D01*
X183031666Y-45748152D02*
X183222142Y-45748152D01*
X183222142Y-45748152D02*
X183317380Y-45795771D01*
X182888809Y-46367200D02*
X182984047Y-46414819D01*
X182984047Y-46414819D02*
X183222142Y-46414819D01*
X183222142Y-46414819D02*
X183317380Y-46367200D01*
X183317380Y-46367200D02*
X183364999Y-46271961D01*
X183364999Y-46271961D02*
X183364999Y-46176723D01*
X183364999Y-46176723D02*
X183317380Y-46081485D01*
X183317380Y-46081485D02*
X183222142Y-46033866D01*
X183222142Y-46033866D02*
X182984047Y-46033866D01*
X182984047Y-46033866D02*
X182888809Y-45986247D01*
X182412618Y-45748152D02*
X182412618Y-46414819D01*
X182412618Y-45843390D02*
X182364999Y-45795771D01*
X182364999Y-45795771D02*
X182269761Y-45748152D01*
X182269761Y-45748152D02*
X182126904Y-45748152D01*
X182126904Y-45748152D02*
X182031666Y-45795771D01*
X182031666Y-45795771D02*
X181984047Y-45891009D01*
X181984047Y-45891009D02*
X181984047Y-46414819D01*
X181079285Y-45748152D02*
X181079285Y-46557676D01*
X181079285Y-46557676D02*
X181126904Y-46652914D01*
X181126904Y-46652914D02*
X181174523Y-46700533D01*
X181174523Y-46700533D02*
X181269761Y-46748152D01*
X181269761Y-46748152D02*
X181412618Y-46748152D01*
X181412618Y-46748152D02*
X181507856Y-46700533D01*
X181079285Y-46367200D02*
X181174523Y-46414819D01*
X181174523Y-46414819D02*
X181364999Y-46414819D01*
X181364999Y-46414819D02*
X181460237Y-46367200D01*
X181460237Y-46367200D02*
X181507856Y-46319580D01*
X181507856Y-46319580D02*
X181555475Y-46224342D01*
X181555475Y-46224342D02*
X181555475Y-45938628D01*
X181555475Y-45938628D02*
X181507856Y-45843390D01*
X181507856Y-45843390D02*
X181460237Y-45795771D01*
X181460237Y-45795771D02*
X181364999Y-45748152D01*
X181364999Y-45748152D02*
X181174523Y-45748152D01*
X181174523Y-45748152D02*
X181079285Y-45795771D01*
X180460237Y-46414819D02*
X180555475Y-46367200D01*
X180555475Y-46367200D02*
X180603094Y-46271961D01*
X180603094Y-46271961D02*
X180603094Y-45414819D01*
X179698332Y-46367200D02*
X179793570Y-46414819D01*
X179793570Y-46414819D02*
X179984046Y-46414819D01*
X179984046Y-46414819D02*
X180079284Y-46367200D01*
X180079284Y-46367200D02*
X180126903Y-46271961D01*
X180126903Y-46271961D02*
X180126903Y-45891009D01*
X180126903Y-45891009D02*
X180079284Y-45795771D01*
X180079284Y-45795771D02*
X179984046Y-45748152D01*
X179984046Y-45748152D02*
X179793570Y-45748152D01*
X179793570Y-45748152D02*
X179698332Y-45795771D01*
X179698332Y-45795771D02*
X179650713Y-45891009D01*
X179650713Y-45891009D02*
X179650713Y-45986247D01*
X179650713Y-45986247D02*
X180126903Y-46081485D01*
X178507856Y-45367200D02*
X179364998Y-46652914D01*
X178174522Y-46414819D02*
X178174522Y-45414819D01*
X178174522Y-45414819D02*
X177793570Y-45414819D01*
X177793570Y-45414819D02*
X177698332Y-45462438D01*
X177698332Y-45462438D02*
X177650713Y-45510057D01*
X177650713Y-45510057D02*
X177603094Y-45605295D01*
X177603094Y-45605295D02*
X177603094Y-45748152D01*
X177603094Y-45748152D02*
X177650713Y-45843390D01*
X177650713Y-45843390D02*
X177698332Y-45891009D01*
X177698332Y-45891009D02*
X177793570Y-45938628D01*
X177793570Y-45938628D02*
X178174522Y-45938628D01*
X177174522Y-46414819D02*
X177174522Y-45748152D01*
X177174522Y-45414819D02*
X177222141Y-45462438D01*
X177222141Y-45462438D02*
X177174522Y-45510057D01*
X177174522Y-45510057D02*
X177126903Y-45462438D01*
X177126903Y-45462438D02*
X177174522Y-45414819D01*
X177174522Y-45414819D02*
X177174522Y-45510057D01*
X176698332Y-45748152D02*
X176698332Y-46414819D01*
X176698332Y-45843390D02*
X176650713Y-45795771D01*
X176650713Y-45795771D02*
X176555475Y-45748152D01*
X176555475Y-45748152D02*
X176412618Y-45748152D01*
X176412618Y-45748152D02*
X176317380Y-45795771D01*
X176317380Y-45795771D02*
X176269761Y-45891009D01*
X176269761Y-45891009D02*
X176269761Y-46414819D01*
X174555475Y-45414819D02*
X175031665Y-45414819D01*
X175031665Y-45414819D02*
X175079284Y-45891009D01*
X175079284Y-45891009D02*
X175031665Y-45843390D01*
X175031665Y-45843390D02*
X174936427Y-45795771D01*
X174936427Y-45795771D02*
X174698332Y-45795771D01*
X174698332Y-45795771D02*
X174603094Y-45843390D01*
X174603094Y-45843390D02*
X174555475Y-45891009D01*
X174555475Y-45891009D02*
X174507856Y-45986247D01*
X174507856Y-45986247D02*
X174507856Y-46224342D01*
X174507856Y-46224342D02*
X174555475Y-46319580D01*
X174555475Y-46319580D02*
X174603094Y-46367200D01*
X174603094Y-46367200D02*
X174698332Y-46414819D01*
X174698332Y-46414819D02*
X174936427Y-46414819D01*
X174936427Y-46414819D02*
X175031665Y-46367200D01*
X175031665Y-46367200D02*
X175079284Y-46319580D01*
X211573095Y-46294819D02*
X211906428Y-45818628D01*
X212144523Y-46294819D02*
X212144523Y-45294819D01*
X212144523Y-45294819D02*
X211763571Y-45294819D01*
X211763571Y-45294819D02*
X211668333Y-45342438D01*
X211668333Y-45342438D02*
X211620714Y-45390057D01*
X211620714Y-45390057D02*
X211573095Y-45485295D01*
X211573095Y-45485295D02*
X211573095Y-45628152D01*
X211573095Y-45628152D02*
X211620714Y-45723390D01*
X211620714Y-45723390D02*
X211668333Y-45771009D01*
X211668333Y-45771009D02*
X211763571Y-45818628D01*
X211763571Y-45818628D02*
X212144523Y-45818628D01*
X210620714Y-46294819D02*
X211192142Y-46294819D01*
X210906428Y-46294819D02*
X210906428Y-45294819D01*
X210906428Y-45294819D02*
X211001666Y-45437676D01*
X211001666Y-45437676D02*
X211096904Y-45532914D01*
X211096904Y-45532914D02*
X211192142Y-45580533D01*
X209477857Y-45247200D02*
X210334999Y-46532914D01*
X209144523Y-46294819D02*
X209144523Y-45294819D01*
X209144523Y-45294819D02*
X208763571Y-45294819D01*
X208763571Y-45294819D02*
X208668333Y-45342438D01*
X208668333Y-45342438D02*
X208620714Y-45390057D01*
X208620714Y-45390057D02*
X208573095Y-45485295D01*
X208573095Y-45485295D02*
X208573095Y-45628152D01*
X208573095Y-45628152D02*
X208620714Y-45723390D01*
X208620714Y-45723390D02*
X208668333Y-45771009D01*
X208668333Y-45771009D02*
X208763571Y-45818628D01*
X208763571Y-45818628D02*
X209144523Y-45818628D01*
X208144523Y-46294819D02*
X208144523Y-45628152D01*
X208144523Y-45294819D02*
X208192142Y-45342438D01*
X208192142Y-45342438D02*
X208144523Y-45390057D01*
X208144523Y-45390057D02*
X208096904Y-45342438D01*
X208096904Y-45342438D02*
X208144523Y-45294819D01*
X208144523Y-45294819D02*
X208144523Y-45390057D01*
X207668333Y-45628152D02*
X207668333Y-46294819D01*
X207668333Y-45723390D02*
X207620714Y-45675771D01*
X207620714Y-45675771D02*
X207525476Y-45628152D01*
X207525476Y-45628152D02*
X207382619Y-45628152D01*
X207382619Y-45628152D02*
X207287381Y-45675771D01*
X207287381Y-45675771D02*
X207239762Y-45771009D01*
X207239762Y-45771009D02*
X207239762Y-46294819D01*
X206049285Y-45390057D02*
X206001666Y-45342438D01*
X206001666Y-45342438D02*
X205906428Y-45294819D01*
X205906428Y-45294819D02*
X205668333Y-45294819D01*
X205668333Y-45294819D02*
X205573095Y-45342438D01*
X205573095Y-45342438D02*
X205525476Y-45390057D01*
X205525476Y-45390057D02*
X205477857Y-45485295D01*
X205477857Y-45485295D02*
X205477857Y-45580533D01*
X205477857Y-45580533D02*
X205525476Y-45723390D01*
X205525476Y-45723390D02*
X206096904Y-46294819D01*
X206096904Y-46294819D02*
X205477857Y-46294819D01*
X240543095Y-46534819D02*
X241019285Y-46534819D01*
X241019285Y-46534819D02*
X241019285Y-45534819D01*
X239685952Y-46534819D02*
X240257380Y-46534819D01*
X239971666Y-46534819D02*
X239971666Y-45534819D01*
X239971666Y-45534819D02*
X240066904Y-45677676D01*
X240066904Y-45677676D02*
X240162142Y-45772914D01*
X240162142Y-45772914D02*
X240257380Y-45820533D01*
X238543095Y-45487200D02*
X239400237Y-46772914D01*
X238209761Y-46534819D02*
X238209761Y-45534819D01*
X238209761Y-45534819D02*
X237828809Y-45534819D01*
X237828809Y-45534819D02*
X237733571Y-45582438D01*
X237733571Y-45582438D02*
X237685952Y-45630057D01*
X237685952Y-45630057D02*
X237638333Y-45725295D01*
X237638333Y-45725295D02*
X237638333Y-45868152D01*
X237638333Y-45868152D02*
X237685952Y-45963390D01*
X237685952Y-45963390D02*
X237733571Y-46011009D01*
X237733571Y-46011009D02*
X237828809Y-46058628D01*
X237828809Y-46058628D02*
X238209761Y-46058628D01*
X237209761Y-46534819D02*
X237209761Y-45868152D01*
X237209761Y-45534819D02*
X237257380Y-45582438D01*
X237257380Y-45582438D02*
X237209761Y-45630057D01*
X237209761Y-45630057D02*
X237162142Y-45582438D01*
X237162142Y-45582438D02*
X237209761Y-45534819D01*
X237209761Y-45534819D02*
X237209761Y-45630057D01*
X236733571Y-45868152D02*
X236733571Y-46534819D01*
X236733571Y-45963390D02*
X236685952Y-45915771D01*
X236685952Y-45915771D02*
X236590714Y-45868152D01*
X236590714Y-45868152D02*
X236447857Y-45868152D01*
X236447857Y-45868152D02*
X236352619Y-45915771D01*
X236352619Y-45915771D02*
X236305000Y-46011009D01*
X236305000Y-46011009D02*
X236305000Y-46534819D01*
X234876428Y-45534819D02*
X234781190Y-45534819D01*
X234781190Y-45534819D02*
X234685952Y-45582438D01*
X234685952Y-45582438D02*
X234638333Y-45630057D01*
X234638333Y-45630057D02*
X234590714Y-45725295D01*
X234590714Y-45725295D02*
X234543095Y-45915771D01*
X234543095Y-45915771D02*
X234543095Y-46153866D01*
X234543095Y-46153866D02*
X234590714Y-46344342D01*
X234590714Y-46344342D02*
X234638333Y-46439580D01*
X234638333Y-46439580D02*
X234685952Y-46487200D01*
X234685952Y-46487200D02*
X234781190Y-46534819D01*
X234781190Y-46534819D02*
X234876428Y-46534819D01*
X234876428Y-46534819D02*
X234971666Y-46487200D01*
X234971666Y-46487200D02*
X235019285Y-46439580D01*
X235019285Y-46439580D02*
X235066904Y-46344342D01*
X235066904Y-46344342D02*
X235114523Y-46153866D01*
X235114523Y-46153866D02*
X235114523Y-45915771D01*
X235114523Y-45915771D02*
X235066904Y-45725295D01*
X235066904Y-45725295D02*
X235019285Y-45630057D01*
X235019285Y-45630057D02*
X234971666Y-45582438D01*
X234971666Y-45582438D02*
X234876428Y-45534819D01*
X151528333Y-88889580D02*
X151575952Y-88937200D01*
X151575952Y-88937200D02*
X151718809Y-88984819D01*
X151718809Y-88984819D02*
X151814047Y-88984819D01*
X151814047Y-88984819D02*
X151956904Y-88937200D01*
X151956904Y-88937200D02*
X152052142Y-88841961D01*
X152052142Y-88841961D02*
X152099761Y-88746723D01*
X152099761Y-88746723D02*
X152147380Y-88556247D01*
X152147380Y-88556247D02*
X152147380Y-88413390D01*
X152147380Y-88413390D02*
X152099761Y-88222914D01*
X152099761Y-88222914D02*
X152052142Y-88127676D01*
X152052142Y-88127676D02*
X151956904Y-88032438D01*
X151956904Y-88032438D02*
X151814047Y-87984819D01*
X151814047Y-87984819D02*
X151718809Y-87984819D01*
X151718809Y-87984819D02*
X151575952Y-88032438D01*
X151575952Y-88032438D02*
X151528333Y-88080057D01*
X151099761Y-88984819D02*
X151099761Y-88318152D01*
X151099761Y-88508628D02*
X151052142Y-88413390D01*
X151052142Y-88413390D02*
X151004523Y-88365771D01*
X151004523Y-88365771D02*
X150909285Y-88318152D01*
X150909285Y-88318152D02*
X150814047Y-88318152D01*
X150337856Y-88984819D02*
X150433094Y-88937200D01*
X150433094Y-88937200D02*
X150480713Y-88889580D01*
X150480713Y-88889580D02*
X150528332Y-88794342D01*
X150528332Y-88794342D02*
X150528332Y-88508628D01*
X150528332Y-88508628D02*
X150480713Y-88413390D01*
X150480713Y-88413390D02*
X150433094Y-88365771D01*
X150433094Y-88365771D02*
X150337856Y-88318152D01*
X150337856Y-88318152D02*
X150194999Y-88318152D01*
X150194999Y-88318152D02*
X150099761Y-88365771D01*
X150099761Y-88365771D02*
X150052142Y-88413390D01*
X150052142Y-88413390D02*
X150004523Y-88508628D01*
X150004523Y-88508628D02*
X150004523Y-88794342D01*
X150004523Y-88794342D02*
X150052142Y-88889580D01*
X150052142Y-88889580D02*
X150099761Y-88937200D01*
X150099761Y-88937200D02*
X150194999Y-88984819D01*
X150194999Y-88984819D02*
X150337856Y-88984819D01*
X149623570Y-88937200D02*
X149528332Y-88984819D01*
X149528332Y-88984819D02*
X149337856Y-88984819D01*
X149337856Y-88984819D02*
X149242618Y-88937200D01*
X149242618Y-88937200D02*
X149194999Y-88841961D01*
X149194999Y-88841961D02*
X149194999Y-88794342D01*
X149194999Y-88794342D02*
X149242618Y-88699104D01*
X149242618Y-88699104D02*
X149337856Y-88651485D01*
X149337856Y-88651485D02*
X149480713Y-88651485D01*
X149480713Y-88651485D02*
X149575951Y-88603866D01*
X149575951Y-88603866D02*
X149623570Y-88508628D01*
X149623570Y-88508628D02*
X149623570Y-88461009D01*
X149623570Y-88461009D02*
X149575951Y-88365771D01*
X149575951Y-88365771D02*
X149480713Y-88318152D01*
X149480713Y-88318152D02*
X149337856Y-88318152D01*
X149337856Y-88318152D02*
X149242618Y-88365771D01*
X148814046Y-88937200D02*
X148718808Y-88984819D01*
X148718808Y-88984819D02*
X148528332Y-88984819D01*
X148528332Y-88984819D02*
X148433094Y-88937200D01*
X148433094Y-88937200D02*
X148385475Y-88841961D01*
X148385475Y-88841961D02*
X148385475Y-88794342D01*
X148385475Y-88794342D02*
X148433094Y-88699104D01*
X148433094Y-88699104D02*
X148528332Y-88651485D01*
X148528332Y-88651485D02*
X148671189Y-88651485D01*
X148671189Y-88651485D02*
X148766427Y-88603866D01*
X148766427Y-88603866D02*
X148814046Y-88508628D01*
X148814046Y-88508628D02*
X148814046Y-88461009D01*
X148814046Y-88461009D02*
X148766427Y-88365771D01*
X148766427Y-88365771D02*
X148671189Y-88318152D01*
X148671189Y-88318152D02*
X148528332Y-88318152D01*
X148528332Y-88318152D02*
X148433094Y-88365771D01*
X147242618Y-87937200D02*
X148099760Y-89222914D01*
X146909284Y-88984819D02*
X146909284Y-87984819D01*
X146909284Y-87984819D02*
X146528332Y-87984819D01*
X146528332Y-87984819D02*
X146433094Y-88032438D01*
X146433094Y-88032438D02*
X146385475Y-88080057D01*
X146385475Y-88080057D02*
X146337856Y-88175295D01*
X146337856Y-88175295D02*
X146337856Y-88318152D01*
X146337856Y-88318152D02*
X146385475Y-88413390D01*
X146385475Y-88413390D02*
X146433094Y-88461009D01*
X146433094Y-88461009D02*
X146528332Y-88508628D01*
X146528332Y-88508628D02*
X146909284Y-88508628D01*
X145909284Y-88984819D02*
X145909284Y-88318152D01*
X145909284Y-87984819D02*
X145956903Y-88032438D01*
X145956903Y-88032438D02*
X145909284Y-88080057D01*
X145909284Y-88080057D02*
X145861665Y-88032438D01*
X145861665Y-88032438D02*
X145909284Y-87984819D01*
X145909284Y-87984819D02*
X145909284Y-88080057D01*
X145433094Y-88318152D02*
X145433094Y-88984819D01*
X145433094Y-88413390D02*
X145385475Y-88365771D01*
X145385475Y-88365771D02*
X145290237Y-88318152D01*
X145290237Y-88318152D02*
X145147380Y-88318152D01*
X145147380Y-88318152D02*
X145052142Y-88365771D01*
X145052142Y-88365771D02*
X145004523Y-88461009D01*
X145004523Y-88461009D02*
X145004523Y-88984819D01*
X143623570Y-88413390D02*
X143718808Y-88365771D01*
X143718808Y-88365771D02*
X143766427Y-88318152D01*
X143766427Y-88318152D02*
X143814046Y-88222914D01*
X143814046Y-88222914D02*
X143814046Y-88175295D01*
X143814046Y-88175295D02*
X143766427Y-88080057D01*
X143766427Y-88080057D02*
X143718808Y-88032438D01*
X143718808Y-88032438D02*
X143623570Y-87984819D01*
X143623570Y-87984819D02*
X143433094Y-87984819D01*
X143433094Y-87984819D02*
X143337856Y-88032438D01*
X143337856Y-88032438D02*
X143290237Y-88080057D01*
X143290237Y-88080057D02*
X143242618Y-88175295D01*
X143242618Y-88175295D02*
X143242618Y-88222914D01*
X143242618Y-88222914D02*
X143290237Y-88318152D01*
X143290237Y-88318152D02*
X143337856Y-88365771D01*
X143337856Y-88365771D02*
X143433094Y-88413390D01*
X143433094Y-88413390D02*
X143623570Y-88413390D01*
X143623570Y-88413390D02*
X143718808Y-88461009D01*
X143718808Y-88461009D02*
X143766427Y-88508628D01*
X143766427Y-88508628D02*
X143814046Y-88603866D01*
X143814046Y-88603866D02*
X143814046Y-88794342D01*
X143814046Y-88794342D02*
X143766427Y-88889580D01*
X143766427Y-88889580D02*
X143718808Y-88937200D01*
X143718808Y-88937200D02*
X143623570Y-88984819D01*
X143623570Y-88984819D02*
X143433094Y-88984819D01*
X143433094Y-88984819D02*
X143337856Y-88937200D01*
X143337856Y-88937200D02*
X143290237Y-88889580D01*
X143290237Y-88889580D02*
X143242618Y-88794342D01*
X143242618Y-88794342D02*
X143242618Y-88603866D01*
X143242618Y-88603866D02*
X143290237Y-88508628D01*
X143290237Y-88508628D02*
X143337856Y-88461009D01*
X143337856Y-88461009D02*
X143433094Y-88413390D01*
X178233571Y-77779580D02*
X178281190Y-77827200D01*
X178281190Y-77827200D02*
X178424047Y-77874819D01*
X178424047Y-77874819D02*
X178519285Y-77874819D01*
X178519285Y-77874819D02*
X178662142Y-77827200D01*
X178662142Y-77827200D02*
X178757380Y-77731961D01*
X178757380Y-77731961D02*
X178804999Y-77636723D01*
X178804999Y-77636723D02*
X178852618Y-77446247D01*
X178852618Y-77446247D02*
X178852618Y-77303390D01*
X178852618Y-77303390D02*
X178804999Y-77112914D01*
X178804999Y-77112914D02*
X178757380Y-77017676D01*
X178757380Y-77017676D02*
X178662142Y-76922438D01*
X178662142Y-76922438D02*
X178519285Y-76874819D01*
X178519285Y-76874819D02*
X178424047Y-76874819D01*
X178424047Y-76874819D02*
X178281190Y-76922438D01*
X178281190Y-76922438D02*
X178233571Y-76970057D01*
X177804999Y-77874819D02*
X177804999Y-77208152D01*
X177804999Y-76874819D02*
X177852618Y-76922438D01*
X177852618Y-76922438D02*
X177804999Y-76970057D01*
X177804999Y-76970057D02*
X177757380Y-76922438D01*
X177757380Y-76922438D02*
X177804999Y-76874819D01*
X177804999Y-76874819D02*
X177804999Y-76970057D01*
X177328809Y-77874819D02*
X177328809Y-77208152D01*
X177328809Y-77398628D02*
X177281190Y-77303390D01*
X177281190Y-77303390D02*
X177233571Y-77255771D01*
X177233571Y-77255771D02*
X177138333Y-77208152D01*
X177138333Y-77208152D02*
X177043095Y-77208152D01*
X176281190Y-77827200D02*
X176376428Y-77874819D01*
X176376428Y-77874819D02*
X176566904Y-77874819D01*
X176566904Y-77874819D02*
X176662142Y-77827200D01*
X176662142Y-77827200D02*
X176709761Y-77779580D01*
X176709761Y-77779580D02*
X176757380Y-77684342D01*
X176757380Y-77684342D02*
X176757380Y-77398628D01*
X176757380Y-77398628D02*
X176709761Y-77303390D01*
X176709761Y-77303390D02*
X176662142Y-77255771D01*
X176662142Y-77255771D02*
X176566904Y-77208152D01*
X176566904Y-77208152D02*
X176376428Y-77208152D01*
X176376428Y-77208152D02*
X176281190Y-77255771D01*
X175709761Y-77874819D02*
X175804999Y-77827200D01*
X175804999Y-77827200D02*
X175852618Y-77731961D01*
X175852618Y-77731961D02*
X175852618Y-76874819D01*
X174947856Y-77827200D02*
X175043094Y-77874819D01*
X175043094Y-77874819D02*
X175233570Y-77874819D01*
X175233570Y-77874819D02*
X175328808Y-77827200D01*
X175328808Y-77827200D02*
X175376427Y-77731961D01*
X175376427Y-77731961D02*
X175376427Y-77351009D01*
X175376427Y-77351009D02*
X175328808Y-77255771D01*
X175328808Y-77255771D02*
X175233570Y-77208152D01*
X175233570Y-77208152D02*
X175043094Y-77208152D01*
X175043094Y-77208152D02*
X174947856Y-77255771D01*
X174947856Y-77255771D02*
X174900237Y-77351009D01*
X174900237Y-77351009D02*
X174900237Y-77446247D01*
X174900237Y-77446247D02*
X175376427Y-77541485D01*
X173757380Y-76827200D02*
X174614522Y-78112914D01*
X173424046Y-77874819D02*
X173424046Y-76874819D01*
X173424046Y-76874819D02*
X173043094Y-76874819D01*
X173043094Y-76874819D02*
X172947856Y-76922438D01*
X172947856Y-76922438D02*
X172900237Y-76970057D01*
X172900237Y-76970057D02*
X172852618Y-77065295D01*
X172852618Y-77065295D02*
X172852618Y-77208152D01*
X172852618Y-77208152D02*
X172900237Y-77303390D01*
X172900237Y-77303390D02*
X172947856Y-77351009D01*
X172947856Y-77351009D02*
X173043094Y-77398628D01*
X173043094Y-77398628D02*
X173424046Y-77398628D01*
X172424046Y-77874819D02*
X172424046Y-77208152D01*
X172424046Y-76874819D02*
X172471665Y-76922438D01*
X172471665Y-76922438D02*
X172424046Y-76970057D01*
X172424046Y-76970057D02*
X172376427Y-76922438D01*
X172376427Y-76922438D02*
X172424046Y-76874819D01*
X172424046Y-76874819D02*
X172424046Y-76970057D01*
X171947856Y-77208152D02*
X171947856Y-77874819D01*
X171947856Y-77303390D02*
X171900237Y-77255771D01*
X171900237Y-77255771D02*
X171804999Y-77208152D01*
X171804999Y-77208152D02*
X171662142Y-77208152D01*
X171662142Y-77208152D02*
X171566904Y-77255771D01*
X171566904Y-77255771D02*
X171519285Y-77351009D01*
X171519285Y-77351009D02*
X171519285Y-77874819D01*
X169852618Y-76874819D02*
X170043094Y-76874819D01*
X170043094Y-76874819D02*
X170138332Y-76922438D01*
X170138332Y-76922438D02*
X170185951Y-76970057D01*
X170185951Y-76970057D02*
X170281189Y-77112914D01*
X170281189Y-77112914D02*
X170328808Y-77303390D01*
X170328808Y-77303390D02*
X170328808Y-77684342D01*
X170328808Y-77684342D02*
X170281189Y-77779580D01*
X170281189Y-77779580D02*
X170233570Y-77827200D01*
X170233570Y-77827200D02*
X170138332Y-77874819D01*
X170138332Y-77874819D02*
X169947856Y-77874819D01*
X169947856Y-77874819D02*
X169852618Y-77827200D01*
X169852618Y-77827200D02*
X169804999Y-77779580D01*
X169804999Y-77779580D02*
X169757380Y-77684342D01*
X169757380Y-77684342D02*
X169757380Y-77446247D01*
X169757380Y-77446247D02*
X169804999Y-77351009D01*
X169804999Y-77351009D02*
X169852618Y-77303390D01*
X169852618Y-77303390D02*
X169947856Y-77255771D01*
X169947856Y-77255771D02*
X170138332Y-77255771D01*
X170138332Y-77255771D02*
X170233570Y-77303390D01*
X170233570Y-77303390D02*
X170281189Y-77351009D01*
X170281189Y-77351009D02*
X170328808Y-77446247D01*
X205893095Y-77874819D02*
X206226428Y-77398628D01*
X206464523Y-77874819D02*
X206464523Y-76874819D01*
X206464523Y-76874819D02*
X206083571Y-76874819D01*
X206083571Y-76874819D02*
X205988333Y-76922438D01*
X205988333Y-76922438D02*
X205940714Y-76970057D01*
X205940714Y-76970057D02*
X205893095Y-77065295D01*
X205893095Y-77065295D02*
X205893095Y-77208152D01*
X205893095Y-77208152D02*
X205940714Y-77303390D01*
X205940714Y-77303390D02*
X205988333Y-77351009D01*
X205988333Y-77351009D02*
X206083571Y-77398628D01*
X206083571Y-77398628D02*
X206464523Y-77398628D01*
X205512142Y-76970057D02*
X205464523Y-76922438D01*
X205464523Y-76922438D02*
X205369285Y-76874819D01*
X205369285Y-76874819D02*
X205131190Y-76874819D01*
X205131190Y-76874819D02*
X205035952Y-76922438D01*
X205035952Y-76922438D02*
X204988333Y-76970057D01*
X204988333Y-76970057D02*
X204940714Y-77065295D01*
X204940714Y-77065295D02*
X204940714Y-77160533D01*
X204940714Y-77160533D02*
X204988333Y-77303390D01*
X204988333Y-77303390D02*
X205559761Y-77874819D01*
X205559761Y-77874819D02*
X204940714Y-77874819D01*
X203797857Y-76827200D02*
X204654999Y-78112914D01*
X203464523Y-77874819D02*
X203464523Y-76874819D01*
X203464523Y-76874819D02*
X203083571Y-76874819D01*
X203083571Y-76874819D02*
X202988333Y-76922438D01*
X202988333Y-76922438D02*
X202940714Y-76970057D01*
X202940714Y-76970057D02*
X202893095Y-77065295D01*
X202893095Y-77065295D02*
X202893095Y-77208152D01*
X202893095Y-77208152D02*
X202940714Y-77303390D01*
X202940714Y-77303390D02*
X202988333Y-77351009D01*
X202988333Y-77351009D02*
X203083571Y-77398628D01*
X203083571Y-77398628D02*
X203464523Y-77398628D01*
X202464523Y-77874819D02*
X202464523Y-77208152D01*
X202464523Y-76874819D02*
X202512142Y-76922438D01*
X202512142Y-76922438D02*
X202464523Y-76970057D01*
X202464523Y-76970057D02*
X202416904Y-76922438D01*
X202416904Y-76922438D02*
X202464523Y-76874819D01*
X202464523Y-76874819D02*
X202464523Y-76970057D01*
X201988333Y-77208152D02*
X201988333Y-77874819D01*
X201988333Y-77303390D02*
X201940714Y-77255771D01*
X201940714Y-77255771D02*
X201845476Y-77208152D01*
X201845476Y-77208152D02*
X201702619Y-77208152D01*
X201702619Y-77208152D02*
X201607381Y-77255771D01*
X201607381Y-77255771D02*
X201559762Y-77351009D01*
X201559762Y-77351009D02*
X201559762Y-77874819D01*
X200416904Y-76874819D02*
X199797857Y-76874819D01*
X199797857Y-76874819D02*
X200131190Y-77255771D01*
X200131190Y-77255771D02*
X199988333Y-77255771D01*
X199988333Y-77255771D02*
X199893095Y-77303390D01*
X199893095Y-77303390D02*
X199845476Y-77351009D01*
X199845476Y-77351009D02*
X199797857Y-77446247D01*
X199797857Y-77446247D02*
X199797857Y-77684342D01*
X199797857Y-77684342D02*
X199845476Y-77779580D01*
X199845476Y-77779580D02*
X199893095Y-77827200D01*
X199893095Y-77827200D02*
X199988333Y-77874819D01*
X199988333Y-77874819D02*
X200274047Y-77874819D01*
X200274047Y-77874819D02*
X200369285Y-77827200D01*
X200369285Y-77827200D02*
X200416904Y-77779580D01*
X235103095Y-77874819D02*
X235579285Y-77874819D01*
X235579285Y-77874819D02*
X235579285Y-76874819D01*
X234817380Y-76970057D02*
X234769761Y-76922438D01*
X234769761Y-76922438D02*
X234674523Y-76874819D01*
X234674523Y-76874819D02*
X234436428Y-76874819D01*
X234436428Y-76874819D02*
X234341190Y-76922438D01*
X234341190Y-76922438D02*
X234293571Y-76970057D01*
X234293571Y-76970057D02*
X234245952Y-77065295D01*
X234245952Y-77065295D02*
X234245952Y-77160533D01*
X234245952Y-77160533D02*
X234293571Y-77303390D01*
X234293571Y-77303390D02*
X234864999Y-77874819D01*
X234864999Y-77874819D02*
X234245952Y-77874819D01*
X233103095Y-76827200D02*
X233960237Y-78112914D01*
X232769761Y-77874819D02*
X232769761Y-76874819D01*
X232769761Y-76874819D02*
X232388809Y-76874819D01*
X232388809Y-76874819D02*
X232293571Y-76922438D01*
X232293571Y-76922438D02*
X232245952Y-76970057D01*
X232245952Y-76970057D02*
X232198333Y-77065295D01*
X232198333Y-77065295D02*
X232198333Y-77208152D01*
X232198333Y-77208152D02*
X232245952Y-77303390D01*
X232245952Y-77303390D02*
X232293571Y-77351009D01*
X232293571Y-77351009D02*
X232388809Y-77398628D01*
X232388809Y-77398628D02*
X232769761Y-77398628D01*
X231769761Y-77874819D02*
X231769761Y-77208152D01*
X231769761Y-76874819D02*
X231817380Y-76922438D01*
X231817380Y-76922438D02*
X231769761Y-76970057D01*
X231769761Y-76970057D02*
X231722142Y-76922438D01*
X231722142Y-76922438D02*
X231769761Y-76874819D01*
X231769761Y-76874819D02*
X231769761Y-76970057D01*
X231293571Y-77208152D02*
X231293571Y-77874819D01*
X231293571Y-77303390D02*
X231245952Y-77255771D01*
X231245952Y-77255771D02*
X231150714Y-77208152D01*
X231150714Y-77208152D02*
X231007857Y-77208152D01*
X231007857Y-77208152D02*
X230912619Y-77255771D01*
X230912619Y-77255771D02*
X230865000Y-77351009D01*
X230865000Y-77351009D02*
X230865000Y-77874819D01*
X229103095Y-77874819D02*
X229674523Y-77874819D01*
X229388809Y-77874819D02*
X229388809Y-76874819D01*
X229388809Y-76874819D02*
X229484047Y-77017676D01*
X229484047Y-77017676D02*
X229579285Y-77112914D01*
X229579285Y-77112914D02*
X229674523Y-77160533D01*
X66408095Y-57884819D02*
X66884285Y-57884819D01*
X66884285Y-57884819D02*
X66884285Y-56884819D01*
X65693809Y-57837200D02*
X65789047Y-57884819D01*
X65789047Y-57884819D02*
X65979523Y-57884819D01*
X65979523Y-57884819D02*
X66074761Y-57837200D01*
X66074761Y-57837200D02*
X66122380Y-57741961D01*
X66122380Y-57741961D02*
X66122380Y-57361009D01*
X66122380Y-57361009D02*
X66074761Y-57265771D01*
X66074761Y-57265771D02*
X65979523Y-57218152D01*
X65979523Y-57218152D02*
X65789047Y-57218152D01*
X65789047Y-57218152D02*
X65693809Y-57265771D01*
X65693809Y-57265771D02*
X65646190Y-57361009D01*
X65646190Y-57361009D02*
X65646190Y-57456247D01*
X65646190Y-57456247D02*
X66122380Y-57551485D01*
X65360475Y-57218152D02*
X64979523Y-57218152D01*
X65217618Y-57884819D02*
X65217618Y-57027676D01*
X65217618Y-57027676D02*
X65169999Y-56932438D01*
X65169999Y-56932438D02*
X65074761Y-56884819D01*
X65074761Y-56884819D02*
X64979523Y-56884819D01*
X64789046Y-57218152D02*
X64408094Y-57218152D01*
X64646189Y-56884819D02*
X64646189Y-57741961D01*
X64646189Y-57741961D02*
X64598570Y-57837200D01*
X64598570Y-57837200D02*
X64503332Y-57884819D01*
X64503332Y-57884819D02*
X64408094Y-57884819D01*
X63360475Y-56837200D02*
X64217617Y-58122914D01*
X63027141Y-57884819D02*
X63027141Y-56884819D01*
X63027141Y-56884819D02*
X62646189Y-56884819D01*
X62646189Y-56884819D02*
X62550951Y-56932438D01*
X62550951Y-56932438D02*
X62503332Y-56980057D01*
X62503332Y-56980057D02*
X62455713Y-57075295D01*
X62455713Y-57075295D02*
X62455713Y-57218152D01*
X62455713Y-57218152D02*
X62503332Y-57313390D01*
X62503332Y-57313390D02*
X62550951Y-57361009D01*
X62550951Y-57361009D02*
X62646189Y-57408628D01*
X62646189Y-57408628D02*
X63027141Y-57408628D01*
X62027141Y-57884819D02*
X62027141Y-57218152D01*
X62027141Y-56884819D02*
X62074760Y-56932438D01*
X62074760Y-56932438D02*
X62027141Y-56980057D01*
X62027141Y-56980057D02*
X61979522Y-56932438D01*
X61979522Y-56932438D02*
X62027141Y-56884819D01*
X62027141Y-56884819D02*
X62027141Y-56980057D01*
X61550951Y-57218152D02*
X61550951Y-57884819D01*
X61550951Y-57313390D02*
X61503332Y-57265771D01*
X61503332Y-57265771D02*
X61408094Y-57218152D01*
X61408094Y-57218152D02*
X61265237Y-57218152D01*
X61265237Y-57218152D02*
X61169999Y-57265771D01*
X61169999Y-57265771D02*
X61122380Y-57361009D01*
X61122380Y-57361009D02*
X61122380Y-57884819D01*
X59360475Y-57884819D02*
X59931903Y-57884819D01*
X59646189Y-57884819D02*
X59646189Y-56884819D01*
X59646189Y-56884819D02*
X59741427Y-57027676D01*
X59741427Y-57027676D02*
X59836665Y-57122914D01*
X59836665Y-57122914D02*
X59931903Y-57170533D01*
X58979522Y-56980057D02*
X58931903Y-56932438D01*
X58931903Y-56932438D02*
X58836665Y-56884819D01*
X58836665Y-56884819D02*
X58598570Y-56884819D01*
X58598570Y-56884819D02*
X58503332Y-56932438D01*
X58503332Y-56932438D02*
X58455713Y-56980057D01*
X58455713Y-56980057D02*
X58408094Y-57075295D01*
X58408094Y-57075295D02*
X58408094Y-57170533D01*
X58408094Y-57170533D02*
X58455713Y-57313390D01*
X58455713Y-57313390D02*
X59027141Y-57884819D01*
X59027141Y-57884819D02*
X58408094Y-57884819D01*
X129714285Y-56519104D02*
X129238095Y-56519104D01*
X129809523Y-56804819D02*
X129476190Y-55804819D01*
X129476190Y-55804819D02*
X129142857Y-56804819D01*
X128285714Y-56804819D02*
X128857142Y-56804819D01*
X128571428Y-56804819D02*
X128571428Y-55804819D01*
X128571428Y-55804819D02*
X128666666Y-55947676D01*
X128666666Y-55947676D02*
X128761904Y-56042914D01*
X128761904Y-56042914D02*
X128857142Y-56090533D01*
X174344649Y-122340737D02*
X174677982Y-121864546D01*
X174916077Y-122340737D02*
X174916077Y-121340737D01*
X174916077Y-121340737D02*
X174535125Y-121340737D01*
X174535125Y-121340737D02*
X174439887Y-121388356D01*
X174439887Y-121388356D02*
X174392268Y-121435975D01*
X174392268Y-121435975D02*
X174344649Y-121531213D01*
X174344649Y-121531213D02*
X174344649Y-121674070D01*
X174344649Y-121674070D02*
X174392268Y-121769308D01*
X174392268Y-121769308D02*
X174439887Y-121816927D01*
X174439887Y-121816927D02*
X174535125Y-121864546D01*
X174535125Y-121864546D02*
X174916077Y-121864546D01*
X174011315Y-121340737D02*
X173392268Y-121340737D01*
X173392268Y-121340737D02*
X173725601Y-121721689D01*
X173725601Y-121721689D02*
X173582744Y-121721689D01*
X173582744Y-121721689D02*
X173487506Y-121769308D01*
X173487506Y-121769308D02*
X173439887Y-121816927D01*
X173439887Y-121816927D02*
X173392268Y-121912165D01*
X173392268Y-121912165D02*
X173392268Y-122150260D01*
X173392268Y-122150260D02*
X173439887Y-122245498D01*
X173439887Y-122245498D02*
X173487506Y-122293118D01*
X173487506Y-122293118D02*
X173582744Y-122340737D01*
X173582744Y-122340737D02*
X173868458Y-122340737D01*
X173868458Y-122340737D02*
X173963696Y-122293118D01*
X173963696Y-122293118D02*
X174011315Y-122245498D01*
X172249411Y-121293118D02*
X173106553Y-122578832D01*
X171916077Y-122340737D02*
X171916077Y-121340737D01*
X171916077Y-121340737D02*
X171535125Y-121340737D01*
X171535125Y-121340737D02*
X171439887Y-121388356D01*
X171439887Y-121388356D02*
X171392268Y-121435975D01*
X171392268Y-121435975D02*
X171344649Y-121531213D01*
X171344649Y-121531213D02*
X171344649Y-121674070D01*
X171344649Y-121674070D02*
X171392268Y-121769308D01*
X171392268Y-121769308D02*
X171439887Y-121816927D01*
X171439887Y-121816927D02*
X171535125Y-121864546D01*
X171535125Y-121864546D02*
X171916077Y-121864546D01*
X170916077Y-122340737D02*
X170916077Y-121674070D01*
X170916077Y-121340737D02*
X170963696Y-121388356D01*
X170963696Y-121388356D02*
X170916077Y-121435975D01*
X170916077Y-121435975D02*
X170868458Y-121388356D01*
X170868458Y-121388356D02*
X170916077Y-121340737D01*
X170916077Y-121340737D02*
X170916077Y-121435975D01*
X170439887Y-121674070D02*
X170439887Y-122340737D01*
X170439887Y-121769308D02*
X170392268Y-121721689D01*
X170392268Y-121721689D02*
X170297030Y-121674070D01*
X170297030Y-121674070D02*
X170154173Y-121674070D01*
X170154173Y-121674070D02*
X170058935Y-121721689D01*
X170058935Y-121721689D02*
X170011316Y-121816927D01*
X170011316Y-121816927D02*
X170011316Y-122340737D01*
X168344649Y-121674070D02*
X168344649Y-122340737D01*
X168582744Y-121293118D02*
X168820839Y-122007403D01*
X168820839Y-122007403D02*
X168201792Y-122007403D01*
%TO.C,Down/Pin 11*%
X85320000Y-57470000D02*
X85820000Y-56970000D01*
X85320000Y-60970000D02*
X85820000Y-61470000D01*
X85820000Y-56970000D02*
X88820000Y-56970000D01*
X85820000Y-61470000D02*
X88320000Y-61470000D01*
X88820000Y-56970000D02*
X89320000Y-57470000D01*
X89320000Y-58470000D02*
X89320000Y-57470000D01*
X89820000Y-62970000D02*
X89820000Y-63670000D01*
X89820000Y-63670000D02*
X94320000Y-63670000D01*
X94320000Y-58970000D02*
X89820000Y-58970000D01*
X94320000Y-59570000D02*
X94320000Y-58970000D01*
X94320000Y-63670000D02*
X94320000Y-63170000D01*
X89820000Y-62970000D02*
G75*
G03*
X88320000Y-61470000I-1500000J0D01*
G01*
X89320000Y-58470000D02*
G75*
G03*
X89820000Y-58970000I500000J0D01*
G01*
%TO.C,Right/Pin 10*%
X111920000Y-68820000D02*
X112420000Y-68320000D01*
X111920000Y-72320000D02*
X112420000Y-72820000D01*
X112420000Y-68320000D02*
X115420000Y-68320000D01*
X112420000Y-72820000D02*
X114920000Y-72820000D01*
X115420000Y-68320000D02*
X115920000Y-68820000D01*
X115920000Y-69820000D02*
X115920000Y-68820000D01*
X116420000Y-74320000D02*
X116420000Y-75020000D01*
X116420000Y-75020000D02*
X120920000Y-75020000D01*
X120920000Y-70320000D02*
X116420000Y-70320000D01*
X120920000Y-70920000D02*
X120920000Y-70320000D01*
X120920000Y-75020000D02*
X120920000Y-74520000D01*
X116420000Y-74320000D02*
G75*
G03*
X114920000Y-72820000I-1500000J0D01*
G01*
X115920000Y-69820000D02*
G75*
G03*
X116420000Y-70320000I500000J0D01*
G01*
%TO.C,Up/Pin 9*%
X129430000Y-121870000D02*
X129930000Y-121370000D01*
X129430000Y-125370000D02*
X129930000Y-125870000D01*
X129930000Y-121370000D02*
X132930000Y-121370000D01*
X129930000Y-125870000D02*
X132430000Y-125870000D01*
X132930000Y-121370000D02*
X133430000Y-121870000D01*
X133430000Y-122870000D02*
X133430000Y-121870000D01*
X133930000Y-127370000D02*
X133930000Y-128070000D01*
X133930000Y-128070000D02*
X138430000Y-128070000D01*
X138430000Y-123370000D02*
X133930000Y-123370000D01*
X138430000Y-123970000D02*
X138430000Y-123370000D01*
X138430000Y-128070000D02*
X138430000Y-127570000D01*
X133930000Y-127370000D02*
G75*
G03*
X132430000Y-125870000I-1500000J0D01*
G01*
X133430000Y-122870000D02*
G75*
G03*
X133930000Y-123370000I500000J0D01*
G01*
%TO.C,Square/Pin 7*%
X146860000Y-57410000D02*
X147360000Y-56910000D01*
X146860000Y-60910000D02*
X147360000Y-61410000D01*
X147360000Y-56910000D02*
X150360000Y-56910000D01*
X147360000Y-61410000D02*
X149860000Y-61410000D01*
X150360000Y-56910000D02*
X150860000Y-57410000D01*
X150860000Y-58410000D02*
X150860000Y-57410000D01*
X151360000Y-62910000D02*
X151360000Y-63610000D01*
X151360000Y-63610000D02*
X155860000Y-63610000D01*
X155860000Y-58910000D02*
X151360000Y-58910000D01*
X155860000Y-59510000D02*
X155860000Y-58910000D01*
X155860000Y-63610000D02*
X155860000Y-63110000D01*
X151360000Y-62910000D02*
G75*
G03*
X149860000Y-61410000I-1500000J0D01*
G01*
X150860000Y-58410000D02*
G75*
G03*
X151360000Y-58910000I500000J0D01*
G01*
%TO.C,Triangle/Pin 5*%
X173420000Y-45880000D02*
X173920000Y-45380000D01*
X173420000Y-49380000D02*
X173920000Y-49880000D01*
X173920000Y-45380000D02*
X176920000Y-45380000D01*
X173920000Y-49880000D02*
X176420000Y-49880000D01*
X176920000Y-45380000D02*
X177420000Y-45880000D01*
X177420000Y-46880000D02*
X177420000Y-45880000D01*
X177920000Y-51380000D02*
X177920000Y-52080000D01*
X177920000Y-52080000D02*
X182420000Y-52080000D01*
X182420000Y-47380000D02*
X177920000Y-47380000D01*
X182420000Y-47980000D02*
X182420000Y-47380000D01*
X182420000Y-52080000D02*
X182420000Y-51580000D01*
X177920000Y-51380000D02*
G75*
G03*
X176420000Y-49880000I-1500000J0D01*
G01*
X177420000Y-46880000D02*
G75*
G03*
X177920000Y-47380000I500000J0D01*
G01*
%TO.C,R1/Pin 2*%
X202390000Y-45760000D02*
X202890000Y-45260000D01*
X202390000Y-49260000D02*
X202890000Y-49760000D01*
X202890000Y-45260000D02*
X205890000Y-45260000D01*
X202890000Y-49760000D02*
X205390000Y-49760000D01*
X205890000Y-45260000D02*
X206390000Y-45760000D01*
X206390000Y-46760000D02*
X206390000Y-45760000D01*
X206890000Y-51260000D02*
X206890000Y-51960000D01*
X206890000Y-51960000D02*
X211390000Y-51960000D01*
X211390000Y-47260000D02*
X206890000Y-47260000D01*
X211390000Y-47860000D02*
X211390000Y-47260000D01*
X211390000Y-51960000D02*
X211390000Y-51460000D01*
X206890000Y-51260000D02*
G75*
G03*
X205390000Y-49760000I-1500000J0D01*
G01*
X206390000Y-46760000D02*
G75*
G03*
X206890000Y-47260000I500000J0D01*
G01*
%TO.C,L1/Pin 0*%
X231360000Y-46000000D02*
X231860000Y-45500000D01*
X231360000Y-49500000D02*
X231860000Y-50000000D01*
X231860000Y-45500000D02*
X234860000Y-45500000D01*
X231860000Y-50000000D02*
X234360000Y-50000000D01*
X234860000Y-45500000D02*
X235360000Y-46000000D01*
X235360000Y-47000000D02*
X235360000Y-46000000D01*
X235860000Y-51500000D02*
X235860000Y-52200000D01*
X235860000Y-52200000D02*
X240360000Y-52200000D01*
X240360000Y-47500000D02*
X235860000Y-47500000D01*
X240360000Y-48100000D02*
X240360000Y-47500000D01*
X240360000Y-52200000D02*
X240360000Y-51700000D01*
X235860000Y-51500000D02*
G75*
G03*
X234360000Y-50000000I-1500000J0D01*
G01*
X235360000Y-47000000D02*
G75*
G03*
X235860000Y-47500000I500000J0D01*
G01*
%TO.C,Cross/Pin 8*%
X141250000Y-88450000D02*
X141750000Y-87950000D01*
X141250000Y-91950000D02*
X141750000Y-92450000D01*
X141750000Y-87950000D02*
X144750000Y-87950000D01*
X141750000Y-92450000D02*
X144250000Y-92450000D01*
X144750000Y-87950000D02*
X145250000Y-88450000D01*
X145250000Y-89450000D02*
X145250000Y-88450000D01*
X145750000Y-93950000D02*
X145750000Y-94650000D01*
X145750000Y-94650000D02*
X150250000Y-94650000D01*
X150250000Y-89950000D02*
X145750000Y-89950000D01*
X150250000Y-90550000D02*
X150250000Y-89950000D01*
X150250000Y-94650000D02*
X150250000Y-94150000D01*
X145750000Y-93950000D02*
G75*
G03*
X144250000Y-92450000I-1500000J0D01*
G01*
X145250000Y-89450000D02*
G75*
G03*
X145750000Y-89950000I500000J0D01*
G01*
%TO.C,Circle/Pin 6*%
X167860000Y-77340000D02*
X168360000Y-76840000D01*
X167860000Y-80840000D02*
X168360000Y-81340000D01*
X168360000Y-76840000D02*
X171360000Y-76840000D01*
X168360000Y-81340000D02*
X170860000Y-81340000D01*
X171360000Y-76840000D02*
X171860000Y-77340000D01*
X171860000Y-78340000D02*
X171860000Y-77340000D01*
X172360000Y-82840000D02*
X172360000Y-83540000D01*
X172360000Y-83540000D02*
X176860000Y-83540000D01*
X176860000Y-78840000D02*
X172360000Y-78840000D01*
X176860000Y-79440000D02*
X176860000Y-78840000D01*
X176860000Y-83540000D02*
X176860000Y-83040000D01*
X172360000Y-82840000D02*
G75*
G03*
X170860000Y-81340000I-1500000J0D01*
G01*
X171860000Y-78340000D02*
G75*
G03*
X172360000Y-78840000I500000J0D01*
G01*
%TO.C,R2/Pin 3*%
X196710000Y-77340000D02*
X197210000Y-76840000D01*
X196710000Y-80840000D02*
X197210000Y-81340000D01*
X197210000Y-76840000D02*
X200210000Y-76840000D01*
X197210000Y-81340000D02*
X199710000Y-81340000D01*
X200210000Y-76840000D02*
X200710000Y-77340000D01*
X200710000Y-78340000D02*
X200710000Y-77340000D01*
X201210000Y-82840000D02*
X201210000Y-83540000D01*
X201210000Y-83540000D02*
X205710000Y-83540000D01*
X205710000Y-78840000D02*
X201210000Y-78840000D01*
X205710000Y-79440000D02*
X205710000Y-78840000D01*
X205710000Y-83540000D02*
X205710000Y-83040000D01*
X201210000Y-82840000D02*
G75*
G03*
X199710000Y-81340000I-1500000J0D01*
G01*
X200710000Y-78340000D02*
G75*
G03*
X201210000Y-78840000I500000J0D01*
G01*
%TO.C,L2/Pin 1*%
X225920000Y-77340000D02*
X226420000Y-76840000D01*
X225920000Y-80840000D02*
X226420000Y-81340000D01*
X226420000Y-76840000D02*
X229420000Y-76840000D01*
X226420000Y-81340000D02*
X228920000Y-81340000D01*
X229420000Y-76840000D02*
X229920000Y-77340000D01*
X229920000Y-78340000D02*
X229920000Y-77340000D01*
X230420000Y-82840000D02*
X230420000Y-83540000D01*
X230420000Y-83540000D02*
X234920000Y-83540000D01*
X234920000Y-78840000D02*
X230420000Y-78840000D01*
X234920000Y-79440000D02*
X234920000Y-78840000D01*
X234920000Y-83540000D02*
X234920000Y-83040000D01*
X230420000Y-82840000D02*
G75*
G03*
X228920000Y-81340000I-1500000J0D01*
G01*
X229920000Y-78340000D02*
G75*
G03*
X230420000Y-78840000I500000J0D01*
G01*
%TO.C,Left/Pin 12*%
X56225000Y-57350000D02*
X56725000Y-56850000D01*
X56225000Y-60850000D02*
X56725000Y-61350000D01*
X56725000Y-56850000D02*
X59725000Y-56850000D01*
X56725000Y-61350000D02*
X59225000Y-61350000D01*
X59725000Y-56850000D02*
X60225000Y-57350000D01*
X60225000Y-58350000D02*
X60225000Y-57350000D01*
X60725000Y-62850000D02*
X60725000Y-63550000D01*
X60725000Y-63550000D02*
X65225000Y-63550000D01*
X65225000Y-58850000D02*
X60725000Y-58850000D01*
X65225000Y-59450000D02*
X65225000Y-58850000D01*
X65225000Y-63550000D02*
X65225000Y-63050000D01*
X60725000Y-62850000D02*
G75*
G03*
X59225000Y-61350000I-1500000J0D01*
G01*
X60225000Y-58350000D02*
G75*
G03*
X60725000Y-58850000I500000J0D01*
G01*
%TO.C,R3/Pin 4*%
X165161554Y-121805918D02*
X165661554Y-121305918D01*
X165161554Y-125305918D02*
X165661554Y-125805918D01*
X165661554Y-121305918D02*
X168661554Y-121305918D01*
X165661554Y-125805918D02*
X168161554Y-125805918D01*
X168661554Y-121305918D02*
X169161554Y-121805918D01*
X169161554Y-122805918D02*
X169161554Y-121805918D01*
X169661554Y-127305918D02*
X169661554Y-128005918D01*
X169661554Y-128005918D02*
X174161554Y-128005918D01*
X174161554Y-123305918D02*
X169661554Y-123305918D01*
X174161554Y-123905918D02*
X174161554Y-123305918D01*
X174161554Y-128005918D02*
X174161554Y-127505918D01*
X169661554Y-127305918D02*
G75*
G03*
X168161554Y-125805918I-1500000J0D01*
G01*
X169161554Y-122805918D02*
G75*
G03*
X169661554Y-123305918I500000J0D01*
G01*
%TD*%
%LPC*%
D12*
%TO.C,Down/Pin 11*%
X82170000Y-70170000D03*
D13*
X87320000Y-59220000D03*
D14*
X87320000Y-65170000D03*
D13*
X92320000Y-61420000D03*
D15*
X84045000Y-59220000D03*
D16*
X87320000Y-71070000D03*
D15*
X95595000Y-61420000D03*
%TD*%
D12*
%TO.C,Right/Pin 10*%
X108770000Y-81520000D03*
D13*
X113920000Y-70570000D03*
D14*
X113920000Y-76520000D03*
D13*
X118920000Y-72770000D03*
D15*
X110645000Y-70570000D03*
D16*
X113920000Y-82420000D03*
D15*
X122195000Y-72770000D03*
%TD*%
D12*
%TO.C,Up/Pin 9*%
X126280000Y-134570000D03*
D13*
X131430000Y-123620000D03*
D14*
X131430000Y-129570000D03*
D13*
X136430000Y-125820000D03*
D15*
X128155000Y-123620000D03*
D16*
X131430000Y-135470000D03*
D15*
X139705000Y-125820000D03*
%TD*%
D12*
%TO.C,Square/Pin 7*%
X143710000Y-70110000D03*
D13*
X148860000Y-59160000D03*
D14*
X148860000Y-65110000D03*
D13*
X153860000Y-61360000D03*
D15*
X145585000Y-59160000D03*
D16*
X148860000Y-71010000D03*
D15*
X157135000Y-61360000D03*
%TD*%
D12*
%TO.C,Triangle/Pin 5*%
X170270000Y-58580000D03*
D13*
X175420000Y-47630000D03*
D14*
X175420000Y-53580000D03*
D13*
X180420000Y-49830000D03*
D15*
X172145000Y-47630000D03*
D16*
X175420000Y-59480000D03*
D15*
X183695000Y-49830000D03*
%TD*%
D12*
%TO.C,R1/Pin 2*%
X199240000Y-58460000D03*
D13*
X204390000Y-47510000D03*
D14*
X204390000Y-53460000D03*
D13*
X209390000Y-49710000D03*
D15*
X201115000Y-47510000D03*
D16*
X204390000Y-59360000D03*
D15*
X212665000Y-49710000D03*
%TD*%
D12*
%TO.C,L1/Pin 0*%
X228210000Y-58700000D03*
D13*
X233360000Y-47750000D03*
D14*
X233360000Y-53700000D03*
D13*
X238360000Y-49950000D03*
D15*
X230085000Y-47750000D03*
D16*
X233360000Y-59600000D03*
D15*
X241635000Y-49950000D03*
%TD*%
D12*
%TO.C,Cross/Pin 8*%
X138100000Y-101150000D03*
D13*
X143250000Y-90200000D03*
D14*
X143250000Y-96150000D03*
D13*
X148250000Y-92400000D03*
D15*
X139975000Y-90200000D03*
D16*
X143250000Y-102050000D03*
D15*
X151525000Y-92400000D03*
%TD*%
D12*
%TO.C,Circle/Pin 6*%
X164710000Y-90040000D03*
D13*
X169860000Y-79090000D03*
D14*
X169860000Y-85040000D03*
D13*
X174860000Y-81290000D03*
D15*
X166585000Y-79090000D03*
D16*
X169860000Y-90940000D03*
D15*
X178135000Y-81290000D03*
%TD*%
D12*
%TO.C,R2/Pin 3*%
X193560000Y-90040000D03*
D13*
X198710000Y-79090000D03*
D14*
X198710000Y-85040000D03*
D13*
X203710000Y-81290000D03*
D15*
X195435000Y-79090000D03*
D16*
X198710000Y-90940000D03*
D15*
X206985000Y-81290000D03*
%TD*%
D12*
%TO.C,L2/Pin 1*%
X222770000Y-90040000D03*
D13*
X227920000Y-79090000D03*
D14*
X227920000Y-85040000D03*
D13*
X232920000Y-81290000D03*
D15*
X224645000Y-79090000D03*
D16*
X227920000Y-90940000D03*
D15*
X236195000Y-81290000D03*
%TD*%
D17*
%TO.C,H1*%
X47000000Y-37000000D03*
%TD*%
%TO.C,H4*%
X47000000Y-143000000D03*
%TD*%
%TO.C,H6*%
X243000000Y-143000000D03*
%TD*%
%TO.C,H3*%
X243000000Y-37000000D03*
%TD*%
D12*
%TO.C,Left/Pin 12*%
X53075000Y-70050000D03*
D13*
X58225000Y-59100000D03*
D14*
X58225000Y-65050000D03*
D13*
X63225000Y-61300000D03*
D15*
X54950000Y-59100000D03*
D16*
X58225000Y-70950000D03*
D15*
X66500000Y-61300000D03*
%TD*%
D17*
%TO.C,H2*%
X150000000Y-37000000D03*
%TD*%
D12*
%TO.C,SW26*%
X88000000Y-43000000D03*
X88000000Y-36500000D03*
X92500000Y-43000000D03*
X92500000Y-36500000D03*
%TD*%
%TO.C,SW14*%
X67000000Y-43000000D03*
X67000000Y-36500000D03*
X71500000Y-43000000D03*
X71500000Y-36500000D03*
%TD*%
%TO.C,SW27*%
X98500000Y-43000000D03*
X98500000Y-36500000D03*
X103000000Y-43000000D03*
X103000000Y-36500000D03*
%TD*%
%TO.C,SW13*%
X56500000Y-43000000D03*
X56500000Y-36500000D03*
X61000000Y-43000000D03*
X61000000Y-36500000D03*
%TD*%
%TO.C,SW15*%
X77500000Y-43000000D03*
X77500000Y-36500000D03*
X82000000Y-43000000D03*
X82000000Y-36500000D03*
%TD*%
%TO.C,SW28*%
X109000000Y-43000000D03*
X109000000Y-36500000D03*
X113500000Y-43000000D03*
X113500000Y-36500000D03*
%TD*%
D17*
%TO.C,H7*%
X133500000Y-78000000D03*
%TD*%
%TO.C,H5*%
X150000000Y-143000000D03*
%TD*%
D18*
%TO.C,USB Passthrough*%
X49010000Y-80260000D03*
X49010000Y-93060000D03*
%TD*%
D12*
%TO.C,R3/Pin 4*%
X162011554Y-134505918D03*
D13*
X167161554Y-123555918D03*
D14*
X167161554Y-129505918D03*
D13*
X172161554Y-125755918D03*
D15*
X163886554Y-123555918D03*
D16*
X167161554Y-135405918D03*
D15*
X175436554Y-125755918D03*
%TD*%
%LPD*%
M02*
