%TF.GenerationSoftware,KiCad,Pcbnew,7.0.6*%
%TF.CreationDate,2024-02-01T15:41:42-05:00*%
%TF.ProjectId,Kolbebox_USB_Passthrough,4b6f6c62-6562-46f7-985f-5553425f5061,rev?*%
%TF.SameCoordinates,Original*%
%TF.FileFunction,Copper,L1,Top*%
%TF.FilePolarity,Positive*%
%FSLAX46Y46*%
G04 Gerber Fmt 4.6, Leading zero omitted, Abs format (unit mm)*
G04 Created by KiCad (PCBNEW 7.0.6) date 2024-02-01 15:41:42*
%MOMM*%
%LPD*%
G01*
G04 APERTURE LIST*
G04 Aperture macros list*
%AMRoundRect*
0 Rectangle with rounded corners*
0 $1 Rounding radius*
0 $2 $3 $4 $5 $6 $7 $8 $9 X,Y pos of 4 corners*
0 Add a 4 corners polygon primitive as box body*
4,1,4,$2,$3,$4,$5,$6,$7,$8,$9,$2,$3,0*
0 Add four circle primitives for the rounded corners*
1,1,$1+$1,$2,$3*
1,1,$1+$1,$4,$5*
1,1,$1+$1,$6,$7*
1,1,$1+$1,$8,$9*
0 Add four rect primitives between the rounded corners*
20,1,$1+$1,$2,$3,$4,$5,0*
20,1,$1+$1,$4,$5,$6,$7,0*
20,1,$1+$1,$6,$7,$8,$9,0*
20,1,$1+$1,$8,$9,$2,$3,0*%
G04 Aperture macros list end*
%TA.AperFunction,ComponentPad*%
%ADD10C,2.032000*%
%TD*%
%TA.AperFunction,ComponentPad*%
%ADD11C,2.000000*%
%TD*%
%TA.AperFunction,SMDPad,CuDef*%
%ADD12RoundRect,0.381000X1.119000X0.381000X-1.119000X0.381000X-1.119000X-0.381000X1.119000X-0.381000X0*%
%TD*%
%TA.AperFunction,SMDPad,CuDef*%
%ADD13RoundRect,0.381000X-0.381000X1.119000X-0.381000X-1.119000X0.381000X-1.119000X0.381000X1.119000X0*%
%TD*%
%TA.AperFunction,SMDPad,CuDef*%
%ADD14RoundRect,0.381000X0.381000X-1.119000X0.381000X1.119000X-0.381000X1.119000X-0.381000X-1.119000X0*%
%TD*%
%TA.AperFunction,SMDPad,CuDef*%
%ADD15RoundRect,0.325000X-1.175000X0.325000X-1.175000X-0.325000X1.175000X-0.325000X1.175000X0.325000X0*%
%TD*%
%TA.AperFunction,ComponentPad*%
%ADD16O,2.900000X1.200000*%
%TD*%
%TA.AperFunction,SMDPad,CuDef*%
%ADD17RoundRect,0.243750X-0.456250X0.243750X-0.456250X-0.243750X0.456250X-0.243750X0.456250X0.243750X0*%
%TD*%
%TA.AperFunction,SMDPad,CuDef*%
%ADD18RoundRect,0.200000X0.200000X0.275000X-0.200000X0.275000X-0.200000X-0.275000X0.200000X-0.275000X0*%
%TD*%
%TA.AperFunction,ViaPad*%
%ADD19C,0.800000*%
%TD*%
%TA.AperFunction,Conductor*%
%ADD20C,0.381000*%
%TD*%
%TA.AperFunction,Conductor*%
%ADD21C,0.254000*%
%TD*%
%TA.AperFunction,Conductor*%
%ADD22C,0.200000*%
%TD*%
G04 APERTURE END LIST*
D10*
%TO.P,Down/Pin 11,1,1*%
%TO.N,DOWN*%
X87320000Y-71070000D03*
%TD*%
%TO.P,Right/Pin 10,1,1*%
%TO.N,RIGHT*%
X113920000Y-82420000D03*
%TD*%
%TO.P,Up/Pin 9,1,1*%
%TO.N,UP*%
X131430000Y-135470000D03*
%TD*%
%TO.P,Square/Pin 7,1,1*%
%TO.N,SQUARE*%
X148860000Y-71010000D03*
%TD*%
%TO.P,Triangle/Pin 5,1,1*%
%TO.N,TRIANGLE*%
X175420000Y-59480000D03*
%TD*%
%TO.P,R1/Pin 2,1,1*%
%TO.N,R1*%
X204390000Y-59360000D03*
%TD*%
%TO.P,L1/Pin 0,1,1*%
%TO.N,L1*%
X233360000Y-59600000D03*
%TD*%
%TO.P,Cross/Pin 8,1,1*%
%TO.N,CROSS*%
X143250000Y-102050000D03*
%TD*%
%TO.P,Circle/Pin 6,1,1*%
%TO.N,CIRCLE*%
X169860000Y-90940000D03*
%TD*%
%TO.P,R2/Pin 3,1,1*%
%TO.N,R2*%
X198710000Y-90940000D03*
%TD*%
%TO.P,L2/Pin 1,1,1*%
%TO.N,L2*%
X227920000Y-90940000D03*
%TD*%
%TO.P,Left/Pin 12,1,1*%
%TO.N,LEFT*%
X58225000Y-70950000D03*
%TD*%
D11*
%TO.P,SW26,1,1*%
%TO.N,OPT4*%
X88000000Y-43000000D03*
X88000000Y-36500000D03*
%TO.P,SW26,2,2*%
%TO.N,GND*%
X92500000Y-43000000D03*
X92500000Y-36500000D03*
%TD*%
%TO.P,SW14,1,1*%
%TO.N,OPT2*%
X67000000Y-43000000D03*
X67000000Y-36500000D03*
%TO.P,SW14,2,2*%
%TO.N,GND*%
X71500000Y-43000000D03*
X71500000Y-36500000D03*
%TD*%
%TO.P,SW27,1,1*%
%TO.N,OPT5*%
X98500000Y-43000000D03*
X98500000Y-36500000D03*
%TO.P,SW27,2,2*%
%TO.N,GND*%
X103000000Y-43000000D03*
X103000000Y-36500000D03*
%TD*%
%TO.P,SW13,1,1*%
%TO.N,OPT1*%
X56500000Y-43000000D03*
X56500000Y-36500000D03*
%TO.P,SW13,2,2*%
%TO.N,GND*%
X61000000Y-43000000D03*
X61000000Y-36500000D03*
%TD*%
%TO.P,SW15,1,1*%
%TO.N,OPT3*%
X77500000Y-43000000D03*
X77500000Y-36500000D03*
%TO.P,SW15,2,2*%
%TO.N,GND*%
X82000000Y-43000000D03*
X82000000Y-36500000D03*
%TD*%
%TO.P,SW28,1,1*%
%TO.N,D+*%
X109000000Y-43000000D03*
X109000000Y-36500000D03*
%TO.P,SW28,2,2*%
%TO.N,GND*%
X113500000Y-43000000D03*
X113500000Y-36500000D03*
%TD*%
D12*
%TO.P,A1,0,GPIO0*%
%TO.N,L1*%
X138160000Y-31840000D03*
%TO.P,A1,1,GPIO1*%
%TO.N,L2*%
X138160000Y-34380000D03*
%TO.P,A1,2,GPIO2*%
%TO.N,R1*%
X138160000Y-36920000D03*
%TO.P,A1,3,GPIO3*%
%TO.N,R2*%
X138160000Y-39460000D03*
%TO.P,A1,4,GPIO4*%
%TO.N,TOUCH*%
X138160000Y-42000000D03*
%TO.P,A1,5,GPIO5*%
%TO.N,TRIANGLE*%
X138160000Y-44540000D03*
%TO.P,A1,6,GPIO6*%
%TO.N,CIRCLE*%
X138160000Y-47080000D03*
%TO.P,A1,7,GPIO7*%
%TO.N,SQUARE*%
X138160000Y-49620000D03*
%TO.P,A1,8,GPIO8*%
%TO.N,CROSS*%
X138160000Y-52160000D03*
D13*
%TO.P,A1,9,GPIO9*%
%TO.N,UP*%
X134080000Y-53700000D03*
%TO.P,A1,10,GPIO10*%
%TO.N,RIGHT*%
X131540000Y-53700000D03*
%TO.P,A1,11,GPIO11*%
%TO.N,DOWN*%
X129000000Y-53700000D03*
%TO.P,A1,12,GPIO12*%
%TO.N,LEFT*%
X126460000Y-53700000D03*
D14*
%TO.P,A1,13,GPIO13*%
%TO.N,OPT1*%
X123920000Y-53700000D03*
D12*
%TO.P,A1,14,GPIO14*%
%TO.N,OPT2*%
X119840000Y-52160000D03*
%TO.P,A1,15,GPIO15*%
%TO.N,OPT3*%
X119840000Y-49620000D03*
%TO.P,A1,26,GPIO26*%
%TO.N,OPT4*%
X119840000Y-47080000D03*
%TO.P,A1,27,GPIO27*%
%TO.N,OPT5*%
X119840000Y-44540000D03*
%TO.P,A1,28,GPIO28*%
%TO.N,D+*%
X119840000Y-42000000D03*
%TO.P,A1,29,GPIO29*%
%TO.N,D-*%
X119840000Y-39460000D03*
%TO.P,A1,30,3V3*%
%TO.N,3V3*%
X119840000Y-36920000D03*
%TO.P,A1,31,GND*%
%TO.N,GND*%
X119840000Y-34380000D03*
%TO.P,A1,32,5V*%
%TO.N,5V*%
X119840000Y-31840000D03*
%TD*%
D15*
%TO.P,USB Passthrough,1*%
%TO.N,5V*%
X52710000Y-83160000D03*
%TO.P,USB Passthrough,2*%
%TO.N,D-*%
X52710000Y-85660000D03*
%TO.P,USB Passthrough,3*%
%TO.N,D+*%
X52710000Y-87660000D03*
%TO.P,USB Passthrough,4*%
%TO.N,GND*%
X52710000Y-90160000D03*
D16*
%TO.P,USB Passthrough,5*%
%TO.N,N/C*%
X49010000Y-80260000D03*
X49010000Y-93060000D03*
%TD*%
D17*
%TO.P,F1,1*%
%TO.N,5V*%
X42600000Y-75500000D03*
%TO.P,F1,2*%
X42600000Y-77375000D03*
%TD*%
D18*
%TO.P,Re2,1*%
%TO.N,D-*%
X59432500Y-85760000D03*
%TO.P,Re2,2*%
X57782500Y-85760000D03*
%TD*%
D10*
%TO.P,R3/Pin 4,1,1*%
%TO.N,TOUCH*%
X167161554Y-135405918D03*
%TD*%
D18*
%TO.P,Re1,1*%
%TO.N,D+*%
X59505000Y-88450000D03*
%TO.P,Re1,2*%
X57855000Y-88450000D03*
%TD*%
D19*
%TO.N,GND*%
X117400000Y-34400000D03*
X55900000Y-90200000D03*
%TD*%
D20*
%TO.N,GND*%
X117420000Y-34380000D02*
X117400000Y-34400000D01*
X55860000Y-90160000D02*
X55900000Y-90200000D01*
X52710000Y-90160000D02*
X55860000Y-90160000D01*
X119840000Y-34380000D02*
X117420000Y-34380000D01*
D21*
%TO.N,LEFT*%
X58225000Y-70950000D02*
X64175000Y-76900000D01*
X110950000Y-52450000D02*
X115160000Y-56660000D01*
X68750000Y-76900000D02*
X72300000Y-73350000D01*
X115160000Y-56660000D02*
X125730000Y-56660000D01*
X125730000Y-56660000D02*
X126460000Y-55930000D01*
X78750000Y-52450000D02*
X110950000Y-52450000D01*
X126460000Y-55930000D02*
X126460000Y-53700000D01*
X64175000Y-76900000D02*
X68750000Y-76900000D01*
X126460000Y-53700000D02*
X126460000Y-54540000D01*
X72300000Y-58900000D02*
X78750000Y-52450000D01*
X72300000Y-73350000D02*
X72300000Y-58900000D01*
%TO.N,DOWN*%
X87320000Y-71070000D02*
X92850000Y-76600000D01*
X92850000Y-76600000D02*
X94050000Y-76600000D01*
X129000000Y-55935000D02*
X129000000Y-53700000D01*
X94050000Y-76600000D02*
X112950000Y-57700000D01*
X112950000Y-57700000D02*
X127235000Y-57700000D01*
X127235000Y-57700000D02*
X129000000Y-55935000D01*
%TO.N,RIGHT*%
X113480000Y-58840000D02*
X101150000Y-71170000D01*
X131540000Y-53700000D02*
X131540000Y-54360000D01*
X131540000Y-53700000D02*
X131540000Y-55970000D01*
X101150000Y-71170000D02*
X101150000Y-85300000D01*
X131540000Y-55970000D02*
X128670000Y-58840000D01*
X101150000Y-85300000D02*
X104000000Y-88150000D01*
X108190000Y-88150000D02*
X113920000Y-82420000D01*
X128670000Y-58840000D02*
X113480000Y-58840000D01*
X104000000Y-88150000D02*
X108190000Y-88150000D01*
%TO.N,UP*%
X114210000Y-114740000D02*
X114210000Y-140450000D01*
X134080000Y-53700000D02*
X134080000Y-55800000D01*
X127690000Y-59930000D02*
X126145990Y-61474010D01*
X134080000Y-53700000D02*
X134080000Y-54420000D01*
X134080000Y-55800000D02*
X129950000Y-59930000D01*
X126145990Y-61474010D02*
X126145990Y-102804010D01*
X123200000Y-143700000D02*
X131430000Y-135470000D01*
X129950000Y-59930000D02*
X127690000Y-59930000D01*
X126145990Y-102804010D02*
X114210000Y-114740000D01*
X117460000Y-143700000D02*
X123200000Y-143700000D01*
X114210000Y-140450000D02*
X117460000Y-143700000D01*
%TO.N,L1*%
X143160000Y-39820000D02*
X149040000Y-45700000D01*
X143160000Y-34610000D02*
X143160000Y-39820000D01*
X160090000Y-38540000D02*
X210590000Y-38540000D01*
X210590000Y-38540000D02*
X219800000Y-47750000D01*
X140390000Y-31840000D02*
X143160000Y-34610000D01*
X219800000Y-61550000D02*
X223400000Y-65150000D01*
X219800000Y-47750000D02*
X219800000Y-61550000D01*
X152930000Y-45700000D02*
X160090000Y-38540000D01*
X223400000Y-65150000D02*
X227810000Y-65150000D01*
X149040000Y-45700000D02*
X152930000Y-45700000D01*
X138160000Y-31840000D02*
X140390000Y-31840000D01*
X227810000Y-65150000D02*
X233360000Y-59600000D01*
%TO.N,R1*%
X190900000Y-62850000D02*
X193900000Y-65850000D01*
X161200000Y-40000000D02*
X184250000Y-40000000D01*
X147920000Y-47400000D02*
X153800000Y-47400000D01*
X141370000Y-40850000D02*
X147920000Y-47400000D01*
X141370000Y-38160000D02*
X141370000Y-40850000D01*
X204390000Y-59810000D02*
X204390000Y-59360000D01*
X198350000Y-65850000D02*
X204390000Y-59810000D01*
X138160000Y-36920000D02*
X140130000Y-36920000D01*
X140130000Y-36920000D02*
X141370000Y-38160000D01*
X153800000Y-47400000D02*
X161200000Y-40000000D01*
X193900000Y-65850000D02*
X198350000Y-65850000D01*
X184250000Y-40000000D02*
X190900000Y-46650000D01*
X190900000Y-46650000D02*
X190900000Y-62850000D01*
%TO.N,TRIANGLE*%
X140570000Y-44540000D02*
X147610000Y-51580000D01*
X147610000Y-51580000D02*
X156980000Y-51580000D01*
X165950000Y-65050000D02*
X169850000Y-65050000D01*
X162650000Y-57250000D02*
X162650000Y-61750000D01*
X156980000Y-51580000D02*
X162650000Y-57250000D01*
X138160000Y-44540000D02*
X140570000Y-44540000D01*
X162650000Y-61750000D02*
X165950000Y-65050000D01*
X169850000Y-65050000D02*
X175420000Y-59480000D01*
%TO.N,SQUARE*%
X135100000Y-69600000D02*
X141850000Y-76350000D01*
X138160000Y-49620000D02*
X140170000Y-49620000D01*
X138160000Y-49620000D02*
X139220000Y-49620000D01*
X140170000Y-49620000D02*
X140820000Y-50270000D01*
X143520000Y-76350000D02*
X148860000Y-71010000D01*
X140820000Y-50270000D02*
X140820000Y-54180000D01*
X135100000Y-59900000D02*
X135100000Y-69600000D01*
X141850000Y-76350000D02*
X143520000Y-76350000D01*
X140820000Y-54180000D02*
X135100000Y-59900000D01*
%TO.N,CIRCLE*%
X138160000Y-47080000D02*
X139080000Y-47080000D01*
X147050000Y-52500000D02*
X156525000Y-52500000D01*
X160400000Y-96700000D02*
X164100000Y-96700000D01*
X164100000Y-96700000D02*
X169860000Y-90940000D01*
X156525000Y-52500000D02*
X161750000Y-57725000D01*
X138160000Y-47080000D02*
X141630000Y-47080000D01*
X161750000Y-57725000D02*
X161750000Y-72950000D01*
X156650000Y-92950000D02*
X160400000Y-96700000D01*
X141630000Y-47080000D02*
X147050000Y-52500000D01*
X161750000Y-72950000D02*
X156650000Y-78050000D01*
X156650000Y-78050000D02*
X156650000Y-92950000D01*
%TO.N,CROSS*%
X132200000Y-108050000D02*
X126950000Y-102800000D01*
X138160000Y-52160000D02*
X138960000Y-52160000D01*
X128220000Y-60830000D02*
X131190000Y-60830000D01*
X143250000Y-102050000D02*
X137250000Y-108050000D01*
X126950000Y-102800000D02*
X126950000Y-62100000D01*
X137250000Y-108050000D02*
X132200000Y-108050000D01*
X126950000Y-62100000D02*
X128220000Y-60830000D01*
X138160000Y-53860000D02*
X138160000Y-52160000D01*
X131190000Y-60830000D02*
X138160000Y-53860000D01*
%TO.N,R2*%
X188700000Y-75350000D02*
X184250000Y-79800000D01*
X147250000Y-48200000D02*
X154200000Y-48200000D01*
X188700000Y-47150000D02*
X188700000Y-75350000D01*
X138160000Y-39460000D02*
X140260000Y-39460000D01*
X154200000Y-48200000D02*
X161710000Y-40690000D01*
X192600000Y-97050000D02*
X198710000Y-90940000D01*
X140730000Y-41772053D02*
X147157947Y-48200000D01*
X161710000Y-40690000D02*
X182240000Y-40690000D01*
X184250000Y-79800000D02*
X184250000Y-92700000D01*
X188600000Y-97050000D02*
X192600000Y-97050000D01*
X184250000Y-92700000D02*
X188600000Y-97050000D01*
X140730000Y-39930000D02*
X140730000Y-41772053D01*
X147157947Y-48200000D02*
X147250000Y-48200000D01*
X140260000Y-39460000D02*
X140730000Y-39930000D01*
X182240000Y-40690000D02*
X188700000Y-47150000D01*
%TO.N,L2*%
X142270000Y-40290000D02*
X148580000Y-46600000D01*
X140430000Y-34380000D02*
X142270000Y-36220000D01*
X214000000Y-79250000D02*
X214000000Y-93750000D01*
X153375000Y-46600000D02*
X160775000Y-39200000D01*
X221860000Y-97000000D02*
X227920000Y-90940000D01*
X148580000Y-46600000D02*
X153375000Y-46600000D01*
X218000000Y-75250000D02*
X214000000Y-79250000D01*
X208600000Y-39200000D02*
X218000000Y-48600000D01*
X214000000Y-93750000D02*
X217250000Y-97000000D01*
X217250000Y-97000000D02*
X221860000Y-97000000D01*
X160775000Y-39200000D02*
X208600000Y-39200000D01*
X218000000Y-48600000D02*
X218000000Y-75250000D01*
X142270000Y-36220000D02*
X142270000Y-40290000D01*
X138160000Y-34380000D02*
X140430000Y-34380000D01*
%TO.N,OPT1*%
X64680000Y-51180000D02*
X56500000Y-43000000D01*
X117300000Y-55400000D02*
X122220000Y-55400000D01*
X113080000Y-51180000D02*
X64680000Y-51180000D01*
X113080000Y-51180000D02*
X117300000Y-55400000D01*
X122220000Y-55400000D02*
X123920000Y-53700000D01*
X123920000Y-53700000D02*
X123920000Y-54580000D01*
%TO.N,OPT2*%
X119840000Y-52160000D02*
X119060000Y-52160000D01*
X117890000Y-52160000D02*
X119840000Y-52160000D01*
X73970000Y-49970000D02*
X115700000Y-49970000D01*
X115700000Y-49970000D02*
X117890000Y-52160000D01*
X67000000Y-43000000D02*
X73970000Y-49970000D01*
%TO.N,OPT3*%
X83080000Y-48580000D02*
X117040000Y-48580000D01*
X77500000Y-43000000D02*
X83080000Y-48580000D01*
X118080000Y-49620000D02*
X119840000Y-49620000D01*
X117040000Y-48580000D02*
X118080000Y-49620000D01*
%TO.N,OPT4*%
X119840000Y-47080000D02*
X119720000Y-47200000D01*
X92250000Y-47250000D02*
X119670000Y-47250000D01*
X88000000Y-43000000D02*
X92250000Y-47250000D01*
X119670000Y-47250000D02*
X119840000Y-47080000D01*
%TO.N,OPT5*%
X116500000Y-46250000D02*
X118210000Y-44540000D01*
X101750000Y-46250000D02*
X116500000Y-46250000D01*
X118210000Y-44540000D02*
X119840000Y-44540000D01*
X98500000Y-43000000D02*
X101750000Y-46250000D01*
X119840000Y-44540000D02*
X118910000Y-44540000D01*
%TO.N,TOUCH*%
X138160000Y-42000000D02*
X139680000Y-42000000D01*
X183570000Y-139310000D02*
X179760000Y-143120000D01*
X162160000Y-41440000D02*
X182010000Y-41440000D01*
X183570000Y-79390000D02*
X183570000Y-139310000D01*
X179760000Y-143120000D02*
X174875636Y-143120000D01*
X188030000Y-47460000D02*
X188030000Y-74930000D01*
X154600000Y-49000000D02*
X162160000Y-41440000D01*
X139680000Y-42000000D02*
X146680000Y-49000000D01*
X188030000Y-74930000D02*
X183570000Y-79390000D01*
X174875636Y-143120000D02*
X167161554Y-135405918D01*
X146680000Y-49000000D02*
X154600000Y-49000000D01*
X182010000Y-41440000D02*
X188030000Y-47460000D01*
%TO.N,5V*%
X116760000Y-31840000D02*
X115200000Y-33400000D01*
X42600000Y-80100000D02*
X45660000Y-83160000D01*
X115200000Y-33400000D02*
X53900000Y-33400000D01*
X119840000Y-31840000D02*
X116760000Y-31840000D01*
X42600000Y-77375000D02*
X42600000Y-80100000D01*
X52800000Y-38800000D02*
X42600000Y-49000000D01*
X45660000Y-83160000D02*
X52710000Y-83160000D01*
X53900000Y-33400000D02*
X52800000Y-34500000D01*
X52800000Y-34500000D02*
X52800000Y-38800000D01*
X42600000Y-49000000D02*
X42600000Y-75500000D01*
%TO.N,D-*%
X119160000Y-39460000D02*
X119840000Y-39460000D01*
X64948000Y-81104382D02*
X64948000Y-85595618D01*
X45048000Y-70804382D02*
X53095618Y-78852000D01*
X54897618Y-39646000D02*
X45048000Y-49495618D01*
X119840000Y-39460000D02*
X115840000Y-39460000D01*
D22*
X52710000Y-85660000D02*
X52810000Y-85760000D01*
D21*
X115654000Y-39646000D02*
X54897618Y-39646000D01*
X115840000Y-39460000D02*
X115654000Y-39646000D01*
D22*
X52710000Y-85660000D02*
X52820000Y-85550000D01*
X52810000Y-85760000D02*
X57695000Y-85760000D01*
D21*
X60520500Y-86848000D02*
X59432500Y-85760000D01*
X62695618Y-78852000D02*
X64948000Y-81104382D01*
X63695618Y-86848000D02*
X60520500Y-86848000D01*
X64948000Y-85595618D02*
X63695618Y-86848000D01*
X53095618Y-78852000D02*
X62695618Y-78852000D01*
X45048000Y-49495618D02*
X45048000Y-70804382D01*
%TO.N,D+*%
X119840000Y-42000000D02*
X117589999Y-42000000D01*
X117589999Y-42000000D02*
X115689999Y-40100000D01*
X60603000Y-87352000D02*
X59505000Y-88450000D01*
X65452000Y-85804382D02*
X63904382Y-87352000D01*
X53304382Y-78348000D02*
X62904382Y-78348000D01*
D22*
X52710000Y-87660000D02*
X53500000Y-88450000D01*
D21*
X115750000Y-45250000D02*
X111250000Y-45250000D01*
X55156382Y-40100000D02*
X45552000Y-49704382D01*
X45552000Y-70595618D02*
X53304382Y-78348000D01*
X115689999Y-40100000D02*
X55156382Y-40100000D01*
X62904382Y-78348000D02*
X65452000Y-80895618D01*
D22*
X53500000Y-88450000D02*
X57767500Y-88450000D01*
D21*
X45552000Y-49704382D02*
X45552000Y-70595618D01*
X119840000Y-42000000D02*
X119000000Y-42000000D01*
X111250000Y-45250000D02*
X109000000Y-43000000D01*
X63904382Y-87352000D02*
X60603000Y-87352000D01*
X65452000Y-80895618D02*
X65452000Y-85804382D01*
X119000000Y-42000000D02*
X115750000Y-45250000D01*
%TD*%
M02*
